<svg xmlns="http://www.w3.org/2000/svg" xmlns:xlink="http://www.w3.org/1999/xlink" width="40" zoomAndPan="magnify" viewBox="0 0 30 30.000001" height="40" preserveAspectRatio="xMidYMid meet" version="1.0"><defs><clipPath id="81d57a8dcc"><path d="M 0.484375 0.898438 L 29.515625 0.898438 L 29.515625 24 L 0.484375 24 Z M 0.484375 0.898438 " clip-rule="nonzero"/></clipPath><clipPath id="14ac4ce6b4"><path d="M 7 24 L 13 24 L 13 29.03125 L 7 29.03125 Z M 7 24 " clip-rule="nonzero"/></clipPath><clipPath id="85766932dd"><path d="M 21 24 L 27 24 L 27 29.03125 L 21 29.03125 Z M 21 24 " clip-rule="nonzero"/></clipPath></defs><g clip-path="url(#81d57a8dcc)"><path fill="#5a4338" d="M 29.191406 5.550781 C 28.960938 5.269531 28.621094 5.109375 28.257812 5.109375 L 7.574219 5.109375 L 6.578125 1.765625 C 6.421875 1.25 5.953125 0.898438 5.414062 0.898438 L 1.714844 0.898438 C 1.042969 0.898438 0.5 1.441406 0.5 2.109375 C 0.5 2.78125 1.042969 3.324219 1.714844 3.324219 L 4.511719 3.324219 L 9.042969 18.542969 C 8.550781 19.441406 8.085938 20.730469 8.613281 21.8125 C 9.082031 22.769531 10.136719 23.253906 11.753906 23.253906 C 11.78125 23.253906 11.8125 23.25 11.839844 23.25 C 11.945312 23.238281 22.390625 22.28125 25.992188 22.484375 C 26.515625 22.511719 26.972656 22.113281 27 21.582031 C 27.03125 21.054688 26.628906 20.605469 26.101562 20.574219 C 22.445312 20.367188 12.570312 21.257812 11.710938 21.339844 C 10.824219 21.332031 10.414062 21.136719 10.332031 20.972656 C 10.242188 20.785156 10.304688 20.433594 10.460938 20.035156 C 10.484375 20.035156 10.511719 20.035156 10.539062 20.03125 L 26.359375 18.117188 C 26.882812 18.054688 27.304688 17.660156 27.40625 17.144531 L 29.449219 6.550781 C 29.515625 6.195312 29.421875 5.828125 29.191406 5.550781 Z M 20.410156 11.429688 L 15.433594 11.429688 L 15.433594 7.535156 L 20.410156 7.535156 Z M 9.796875 12.578125 L 14.285156 12.578125 L 14.285156 17.136719 L 11.261719 17.5 Z M 15.433594 12.578125 L 20.410156 12.578125 L 20.410156 16.394531 L 15.433594 16.996094 Z M 26.039062 11.429688 L 21.558594 11.429688 L 21.558594 7.535156 L 26.789062 7.535156 Z M 14.285156 7.535156 L 14.285156 11.429688 L 9.453125 11.429688 L 8.292969 7.535156 Z M 21.558594 16.253906 L 21.558594 12.578125 L 25.816406 12.578125 L 25.191406 15.816406 Z M 21.558594 16.253906 " fill-opacity="1" fill-rule="nonzero"/></g><g clip-path="url(#14ac4ce6b4)"><path fill="#5a4338" d="M 12.6875 26.609375 C 12.6875 26.929688 12.628906 27.238281 12.503906 27.535156 C 12.382812 27.832031 12.207031 28.09375 11.980469 28.324219 C 11.753906 28.550781 11.488281 28.726562 11.195312 28.847656 C 10.898438 28.96875 10.585938 29.03125 10.265625 29.03125 C 9.945312 29.03125 9.636719 28.96875 9.339844 28.847656 C 9.042969 28.726562 8.78125 28.550781 8.554688 28.324219 C 8.328125 28.09375 8.152344 27.832031 8.027344 27.535156 C 7.90625 27.238281 7.84375 26.929688 7.84375 26.609375 C 7.84375 26.289062 7.90625 25.980469 8.027344 25.683594 C 8.152344 25.386719 8.328125 25.125 8.554688 24.898438 C 8.78125 24.667969 9.042969 24.496094 9.339844 24.371094 C 9.636719 24.25 9.945312 24.1875 10.265625 24.1875 C 10.585938 24.1875 10.898438 24.25 11.195312 24.371094 C 11.488281 24.496094 11.753906 24.667969 11.980469 24.898438 C 12.207031 25.125 12.382812 25.386719 12.503906 25.683594 C 12.628906 25.980469 12.6875 26.289062 12.6875 26.609375 Z M 12.6875 26.609375 " fill-opacity="1" fill-rule="nonzero"/></g><g clip-path="url(#85766932dd)"><path fill="#5a4338" d="M 26.472656 26.609375 C 26.472656 26.929688 26.410156 27.238281 26.285156 27.535156 C 26.164062 27.832031 25.988281 28.09375 25.761719 28.324219 C 25.535156 28.550781 25.273438 28.726562 24.976562 28.847656 C 24.679688 28.96875 24.371094 29.03125 24.046875 29.03125 C 23.726562 29.03125 23.417969 28.96875 23.121094 28.847656 C 22.824219 28.726562 22.5625 28.550781 22.335938 28.324219 C 22.109375 28.09375 21.933594 27.832031 21.8125 27.535156 C 21.6875 27.238281 21.625 26.929688 21.625 26.609375 C 21.625 26.289062 21.6875 25.980469 21.8125 25.683594 C 21.933594 25.386719 22.109375 25.125 22.335938 24.898438 C 22.5625 24.667969 22.824219 24.496094 23.121094 24.371094 C 23.417969 24.25 23.726562 24.1875 24.046875 24.1875 C 24.371094 24.1875 24.679688 24.25 24.976562 24.371094 C 25.273438 24.496094 25.535156 24.667969 25.761719 24.898438 C 25.988281 25.125 26.164062 25.386719 26.285156 25.683594 C 26.410156 25.980469 26.472656 26.289062 26.472656 26.609375 Z M 26.472656 26.609375 " fill-opacity="1" fill-rule="nonzero"/></g></svg>