<?xml version="1.0" encoding="UTF-8"?>
<svg version="1.1" xmlns="http://www.w3.org/2000/svg" width="1111" height="1080">
<path d="M0 0 C52.13517686 -0.01710962 104.27035394 -0.03303137 156.40553284 -0.04234314 C157.17652122 -0.0424812 157.94750959 -0.04261925 158.74186126 -0.04276149 C175.49545298 -0.04575405 192.24904472 -0.04852428 209.00263652 -0.05106533 C217.2179849 -0.05231272 225.43333327 -0.05360927 233.64868164 -0.05493164 C234.46622983 -0.0550624 235.28377803 -0.05519316 236.12610041 -0.05532788 C262.64960153 -0.05959312 289.17310053 -0.06710732 315.69660036 -0.07629722 C342.94131074 -0.08571991 370.18601994 -0.09188314 397.43073192 -0.09391499 C401.27434296 -0.09420317 405.11795399 -0.0945288 408.96156502 -0.09487724 C409.71808091 -0.09494467 410.4745968 -0.09501209 411.25403741 -0.09508156 C423.45697163 -0.09626563 435.65990223 -0.10091001 447.86283497 -0.10683203 C460.1156822 -0.11270503 472.36852583 -0.11497157 484.62137442 -0.11350138 C491.26640091 -0.11280535 497.91141894 -0.11387956 504.55644417 -0.11920547 C510.62897333 -0.12403731 516.70148453 -0.12434008 522.77401448 -0.12089889 C524.98128587 -0.12047299 527.18855834 -0.12177053 529.39582758 -0.12488318 C532.37532447 -0.12884352 535.35475479 -0.12676568 538.33425045 -0.12304783 C539.20920039 -0.12567484 540.08415034 -0.12830186 540.98561391 -0.13100848 C546.8858542 -0.1141458 546.8858542 -0.1141458 548 1 C550.69235776 1.23678716 553.36498156 1.42198025 556.0625 1.5625 C556.82111328 1.60568359 557.57972656 1.64886719 558.36132812 1.69335938 C560.24065438 1.79973633 562.12030244 1.90039934 564 2 C564.33 2.99 564.66 3.98 565 5 C568.96 5 572.92 5 577 5 C577 5.66 577 6.32 577 7 C578.27875 6.979375 579.5575 6.95875 580.875 6.9375 C584.75 6.875 584.75 6.875 587 8 C587 8.66 587 9.32 587 10 C589.31 10 591.62 10 594 10 C594 10.66 594 11.32 594 12 C596.64 12 599.28 12 602 12 C602 12.99 602 13.98 602 15 C604.31 15 606.62 15 609 15 C609 15.66 609 16.32 609 17 C610.65 17 612.3 17 614 17 C614 17.99 614 18.98 614 20 C616.31 20 618.62 20 621 20 C621 20.66 621 21.32 621 22 C622.65 22 624.3 22 626 22 C626 22.66 626 23.32 626 24 C628.475 24.495 628.475 24.495 631 25 C631 25.66 631 26.32 631 27 C632.65 27 634.3 27 636 27 C636 27.66 636 28.32 636 29 C638.475 29.495 638.475 29.495 641 30 C641 30.66 641 31.32 641 32 C641.99 32 642.98 32 644 32 C644 32.66 644 33.32 644 34 C646.475 34.495 646.475 34.495 649 35 C649 35.66 649 36.32 649 37 C649.8971875 37.2165625 649.8971875 37.2165625 650.8125 37.4375 C652.56150404 37.8872439 654.28677023 38.42892341 656 39 C656 39.99 656 40.98 656 42 C656.78375 42.144375 657.5675 42.28875 658.375 42.4375 C661 43 661 43 663 44 C663 44.99 663 45.98 663 47 C663.99 47 664.98 47 666 47 C666 47.66 666 48.32 666 49 C667.32 49 668.64 49 670 49 C671.75 50.375 671.75 50.375 673 52 C673 52.66 673 53.32 673 54 C673.99 54 674.98 54 676 54 C676 54.66 676 55.32 676 56 C676.66 56 677.32 56 678 56 C678 56.99 678 57.98 678 59 C678.99 59 679.98 59 681 59 C681 59.66 681 60.32 681 61 C683.33214148 62.20628008 685.49642139 63.1654738 688 64 C688 64.66 688 65.32 688 66 C688.66 66 689.32 66 690 66 C690 66.99 690 67.98 690 69 C690.99 69 691.98 69 693 69 C693 69.66 693 70.32 693 71 C693.66 71 694.32 71 695 71 C695 71.99 695 72.98 695 74 C695.99 74 696.98 74 698 74 C698 74.66 698 75.32 698 76 C698.66 76 699.32 76 700 76 C700 76.99 700 77.98 700 79 C700.99 79.33 701.98 79.66 703 80 C705 83 705 83 705 86 C705.99 86 706.98 86 708 86 C708 86.66 708 87.32 708 88 C708.66 88 709.32 88 710 88 C710 88.99 710 89.98 710 91 C710.99 91 711.98 91 713 91 C713 91.66 713 92.32 713 93 C713.66 93 714.32 93 715 93 C715 93.99 715 94.98 715 96 C715.66 96 716.32 96 717 96 C717 97.65 717 99.3 717 101 C717.99 101 718.98 101 720 101 C720 101.66 720 102.32 720 103 C720.66 103 721.32 103 722 103 C722 103.99 722 104.98 722 106 C722.99 106.33 723.98 106.66 725 107 C725 108.32 725 109.64 725 111 C725.66 111 726.32 111 727 111 C730 115.38461538 730 115.38461538 730 118 C730.66 118 731.32 118 732 118 C732 119.65 732 121.3 732 123 C732.99 123 733.98 123 735 123 C737 126 737 126 737 130 C737.99 130.33 738.98 130.66 740 131 C740 132.32 740 133.64 740 135 C740.66 135 741.32 135 742 135 C742 136.65 742 138.3 742 140 C742.66 140 743.32 140 744 140 C746.41685712 144.22949995 747.34833144 147.12335991 747 152 C747.66 152 748.32 152 749 152 C749 153.65 749 155.3 749 157 C749.99 157.33 750.98 157.66 752 158 C752 160.31 752 162.62 752 165 C752.66 165 753.32 165 754 165 C754 167.31 754 169.62 754 172 C754.99 172 755.98 172 757 172 C757 174.64 757 177.28 757 180 C757.66 180 758.32 180 759 180 C759 182.97 759 185.94 759 189 C759.99 189.33 760.98 189.66 762 190 C762.06058594 190.78246094 762.12117188 191.56492188 762.18359375 192.37109375 C762.26738281 193.38300781 762.35117188 194.39492187 762.4375 195.4375 C762.51871094 196.44683594 762.59992187 197.45617187 762.68359375 198.49609375 C762.73211468 200.93640779 762.73211468 200.93640779 764 202 C764.07244053 204.01964199 764.08377188 206.04167124 764.0625 208.0625 C764.05347656 209.16722656 764.04445313 210.27195313 764.03515625 211.41015625 C764.01775391 212.69212891 764.01775391 212.69212891 764 214 C764.66 214 765.32 214 766 214 C767.32513414 217.97540243 767.13698415 221.77755802 767.12584114 225.92187595 C767.12729458 226.84996707 767.12874802 227.77805819 767.13024551 228.73427328 C767.13392211 231.87336647 767.13041141 235.01241161 767.12698364 238.15150452 C767.1281348 240.41305915 767.12972229 242.6746136 767.13171089 244.93616766 C767.13590487 251.17359586 767.1338132 257.41100887 767.13072467 263.64843714 C767.12870228 269.67708681 767.13135526 275.70573323 767.13387203 281.73438226 C767.13914551 294.83056957 767.13867833 307.92675202 767.13579312 321.0229398 C767.13328071 332.48279187 767.1326194 343.94264215 767.13381577 355.40249443 C767.13393034 356.54132678 767.13393034 356.54132678 767.13404724 357.70316585 C767.13435856 360.78483654 767.13467696 363.86650724 767.135007 366.94817794 C767.13806807 395.87421819 767.13528919 424.80025534 767.1299101 453.72629512 C767.12516379 479.44521729 767.12558929 505.16413451 767.13037109 530.88305664 C767.13572144 559.75663006 767.13785149 588.63020074 767.13475883 617.50377458 C767.1344381 620.5796235 767.13412526 623.65547242 767.13381577 626.73132133 C767.13373669 627.48871345 767.13365761 628.24610557 767.13357614 629.02644896 C767.13243694 640.48192337 767.13377213 651.93739581 767.13629532 663.39286995 C767.13914873 676.41277623 767.13845224 689.43267686 767.13301457 702.45258243 C767.13032946 709.1018034 767.12937292 715.75101651 767.13266373 722.40023804 C767.13562616 728.47763566 767.13403476 734.55501379 767.12868617 740.63240962 C767.12756177 742.84028152 767.12815368 745.04815505 767.13056196 747.25602592 C767.13356779 750.23869633 767.13051948 753.22129845 767.12584114 756.20396519 C767.12818231 757.07703492 767.13052347 757.95010465 767.13293558 758.84963104 C767.11415038 764.77169924 767.11415038 764.77169924 766 767 C765.34 767 764.68 767 764 767 C764 772.61 764 778.22 764 784 C763.34 784 762.68 784 762 784 C762.02320313 784.77085937 762.04640625 785.54171875 762.0703125 786.3359375 C762.09738281 787.84027344 762.09738281 787.84027344 762.125 789.375 C762.15980469 790.87160156 762.15980469 790.87160156 762.1953125 792.3984375 C762 795 762 795 760 797 C759.53993654 799.20250992 759.53993654 799.20250992 759.375 801.625 C759.30023437 802.44226563 759.22546875 803.25953125 759.1484375 804.1015625 C759.09945312 804.72804688 759.05046875 805.35453125 759 806 C758.34 806 757.68 806 757 806 C757 808.64 757 811.28 757 814 C756.01 814 755.02 814 754 814 C754 816.31 754 818.62 754 821 C753.34 821 752.68 821 752 821 C752 823.31 752 825.62 752 828 C751.01 828.33 750.02 828.66 749 829 C749 830.65 749 832.3 749 834 C748.34 834 747.68 834 747 834 C747.061875 834.86625 747.12375 835.7325 747.1875 836.625 C746.97544498 840.44199033 745.87955693 842.71077536 744 846 C743.34 846 742.68 846 742 846 C742 847.65 742 849.3 742 851 C741.34 851 740.68 851 740 851 C739.67 852.65 739.34 854.3 739 856 C738.34 856 737.68 856 737 856 C736.855625 856.78375 736.71125 857.5675 736.5625 858.375 C736 861 736 861 735 863 C734.01 863 733.02 863 732 863 C732 864.65 732 866.3 732 868 C731.34 868 730.68 868 730 868 C729.67 869.65 729.34 871.3 729 873 C728.34 873 727.68 873 727 873 C727 873.99 727 874.98 727 876 C726.34 876 725.68 876 725 876 C725 877.32 725 878.64 725 880 C724.01 880 723.02 880 722 880 C722 880.99 722 881.98 722 883 C721.34 883 720.68 883 720 883 C720 883.66 720 884.32 720 885 C719.01 885 718.02 885 717 885 C717 886.65 717 888.3 717 890 C716.34 890 715.68 890 715 890 C715 890.99 715 891.98 715 893 C714.34 893 713.68 893 713 893 C713 893.66 713 894.32 713 895 C712.01 895 711.02 895 710 895 C710 895.99 710 896.98 710 898 C709.34 898 708.68 898 708 898 C708 898.66 708 899.32 708 900 C707.01 900 706.02 900 705 900 C704.87625 901.0828125 704.87625 901.0828125 704.75 902.1875 C703.84286169 905.58926868 702.39989121 907.45466084 700 910 C699.34 910 698.68 910 698 910 C698 910.66 698 911.32 698 912 C697.01 912 696.02 912 695 912 C695 912.99 695 913.98 695 915 C694.34 915 693.68 915 693 915 C693 915.66 693 916.32 693 917 C692.01 917 691.02 917 690 917 C690 917.99 690 918.98 690 920 C689.34 920 688.68 920 688 920 C688 920.66 688 921.32 688 922 C687.01 922 686.02 922 685 922 C685 922.99 685 923.98 685 925 C682 927 682 927 678 927 C678 927.99 678 928.98 678 930 C677.34 930 676.68 930 676 930 C676 930.66 676 931.32 676 932 C675.01 932 674.02 932 673 932 C673 932.99 673 933.98 673 935 C672.34 935 671.68 935 671 935 C671 935.66 671 936.32 671 937 C669.35 937 667.7 937 666 937 C666 937.99 666 938.98 666 940 C665.01 940 664.02 940 663 940 C663 940.66 663 941.32 663 942 C658.61538462 945 658.61538462 945 656 945 C656 945.66 656 946.32 656 947 C653.35261084 948.4606285 652.10551666 949 649 949 C648.67 949.99 648.34 950.98 648 952 C646.68 952 645.36 952 644 952 C644 952.66 644 953.32 644 954 C642.35 954 640.7 954 639 954 C639 954.99 639 955.98 639 957 C635.91190305 958.76462683 634.76687864 959 631 959 C631 959.66 631 960.32 631 961 C626.77050005 963.41685712 623.87664009 964.34833144 619 964 C619 964.99 619 965.98 619 967 C617.35 967 615.7 967 614 967 C614 967.66 614 968.32 614 969 C611.69 969 609.38 969 607 969 C606.67 969.99 606.34 970.98 606 972 C601.75984941 973.8172074 597.54365942 974.37636047 593 975 C592.67 975.33 592.34 975.66 592 976 C589.66702567 976.04092937 587.33294775 976.04241723 585 976 C584.67 976.99 584.34 977.98 584 979 C581.03 979 578.06 979 575 979 C575 979.66 575 980.32 575 981 C574.30132813 981.04898438 573.60265625 981.09796875 572.8828125 981.1484375 C571.97273437 981.22320313 571.06265625 981.29796875 570.125 981.375 C569.22007812 981.44460938 568.31515625 981.51421875 567.3828125 981.5859375 C564.82058097 981.79568132 564.82058097 981.79568132 563 984 C561.12060547 984.22705078 561.12060547 984.22705078 558.8671875 984.1953125 C558.06152344 984.18886719 557.25585938 984.18242188 556.42578125 984.17578125 C555.58402344 984.15902344 554.74226562 984.14226563 553.875 984.125 C553.02550781 984.11597656 552.17601562 984.10695313 551.30078125 984.09765625 C549.20040116 984.07405647 547.10016556 984.03818483 545 984 C545 984.66 545 985.32 545 986 C493.53218154 986.01710964 442.06436287 986.03303138 390.59654236 986.04234314 C389.83542214 986.0424812 389.07430193 986.04261925 388.29011746 986.04276149 C371.75095813 986.04575405 355.21179878 986.04852428 338.67263937 986.05106533 C330.56243991 986.05231272 322.45224046 986.05360927 314.34204102 986.05493164 C313.53495672 986.0550624 312.72787243 986.05519316 311.89633103 986.05532788 C285.71234256 986.05959311 259.52835624 986.06710731 233.34436908 986.07629722 C206.44838646 986.08571993 179.55240503 986.09188314 152.65642078 986.09391499 C148.86200083 986.09420317 145.06758088 986.0945288 141.27316093 986.09487724 C140.5263271 986.09494467 139.77949326 986.09501209 139.0100281 986.09508156 C126.96330582 986.09626562 114.91658721 986.10090999 102.86986644 986.10683203 C90.77384824 986.11270505 78.6778337 986.11497156 66.58181412 986.11350138 C60.02184859 986.11280535 53.46189178 986.11387952 46.90192795 986.11920547 C40.90711647 986.12403736 34.9123232 986.12434005 28.91751092 986.12089889 C26.73850313 986.12047299 24.55949425 986.1217705 22.38048864 986.12488318 C19.43911219 986.12884359 16.49780316 986.12676563 13.55642796 986.12304783 C12.69270843 986.12567484 11.82898891 986.12830186 10.93909606 986.13100848 C5.1141458 986.1141458 5.1141458 986.1141458 4 985 C1.14122091 984.76298761 -1.69883297 984.57780818 -4.5625 984.4375 C-5.36880859 984.39431641 -6.17511719 984.35113281 -7.00585938 984.30664062 C-9.00368805 984.20024738 -11.0018207 984.09959112 -13 984 C-13 983.01 -13 982.02 -13 981 C-16.96 981 -20.92 981 -25 981 C-25 980.34 -25 979.68 -25 979 C-28.3 979 -31.6 979 -35 979 C-35.33 978.34 -35.66 977.68 -36 977 C-38.12576782 976.53348793 -38.12576782 976.53348793 -40.5625 976.375 C-41.38878906 976.30023437 -42.21507812 976.22546875 -43.06640625 976.1484375 C-43.70449219 976.09945312 -44.34257812 976.05046875 -45 976 C-45 975.34 -45 974.68 -45 974 C-47.31 974 -49.62 974 -52 974 C-52 973.34 -52 972.68 -52 972 C-53.423125 972.0309375 -53.423125 972.0309375 -54.875 972.0625 C-58 972 -58 972 -60 971 C-60 970.34 -60 969.68 -60 969 C-60.86625 969.04125 -61.7325 969.0825 -62.625 969.125 C-66.12358468 968.99542279 -68.74551597 968.23980344 -72 967 C-72 966.01 -72 965.02 -72 964 C-73.299375 964.0928125 -73.299375 964.0928125 -74.625 964.1875 C-78.44199033 963.97544498 -80.71077536 962.87955693 -84 961 C-84 960.34 -84 959.68 -84 959 C-85.65 959 -87.3 959 -89 959 C-89 958.34 -89 957.68 -89 957 C-90.65 956.67 -92.3 956.34 -94 956 C-94 955.34 -94 954.68 -94 954 C-94.99 954 -95.98 954 -97 954 C-97 953.34 -97 952.68 -97 952 C-98.65 951.67 -100.3 951.34 -102 951 C-102 950.34 -102 949.68 -102 949 C-103.32 949 -104.64 949 -106 949 C-106 948.34 -106 947.68 -106 947 C-106.99 947 -107.98 947 -109 947 C-109 946.34 -109 945.68 -109 945 C-110.65 944.67 -112.3 944.34 -114 944 C-114 943.34 -114 942.68 -114 942 C-114.66 942 -115.32 942 -116 942 C-116 941.34 -116 940.68 -116 940 C-117.65 939.67 -119.3 939.34 -121 939 C-121 938.34 -121 937.68 -121 937 C-121.99 937 -122.98 937 -124 937 C-124 936.34 -124 935.68 -124 935 C-124.66 935 -125.32 935 -126 935 C-126 934.01 -126 933.02 -126 932 C-126.99 932 -127.98 932 -129 932 C-129 931.34 -129 930.68 -129 930 C-130.32 929.67 -131.64 929.34 -133 929 C-133 928.34 -133 927.68 -133 927 C-133.99 927 -134.98 927 -136 927 C-136 926.34 -136 925.68 -136 925 C-136.66 925 -137.32 925 -138 925 C-138 924.01 -138 923.02 -138 922 C-138.99 922 -139.98 922 -141 922 C-141 921.34 -141 920.68 -141 920 C-141.66 920 -142.32 920 -143 920 C-143 919.01 -143 918.02 -143 917 C-143.99 917 -144.98 917 -146 917 C-146 916.34 -146 915.68 -146 915 C-146.66 915 -147.32 915 -148 915 C-148 914.34 -148 913.68 -148 913 C-148.99 912.67 -149.98 912.34 -151 912 C-151 911.34 -151 910.68 -151 910 C-151.66 910 -152.32 910 -153 910 C-153 909.34 -153 908.68 -153 908 C-153.99 907.67 -154.98 907.34 -156 907 C-156 906.34 -156 905.68 -156 905 C-156.66 905 -157.32 905 -158 905 C-158 904.34 -158 903.68 -158 903 C-158.66 903 -159.32 903 -160 903 C-161.625 901.8125 -161.625 901.8125 -163 900 C-163.1875 897.3125 -163.1875 897.3125 -163 895 C-163.66 895 -164.32 895 -165 895 C-165 894.34 -165 893.68 -165 893 C-165.99 893 -166.98 893 -168 893 C-168 892.01 -168 891.02 -168 890 C-168.66 890 -169.32 890 -170 890 C-170 889.34 -170 888.68 -170 888 C-170.99 887.67 -171.98 887.34 -173 887 C-173 885.68 -173 884.36 -173 883 C-173.66 883 -174.32 883 -175 883 C-176.625 881.75 -176.625 881.75 -178 880 C-178 878.68 -178 877.36 -178 876 C-178.66 876 -179.32 876 -180 876 C-180 875.01 -180 874.02 -180 873 C-180.99 873 -181.98 873 -183 873 C-183 871.35 -183 869.7 -183 868 C-183.66 868 -184.32 868 -185 868 C-185 867.34 -185 866.68 -185 866 C-185.66 866 -186.32 866 -187 866 C-187.33 864.35 -187.66 862.7 -188 861 C-188.66 861 -189.32 861 -190 861 C-190 859.35 -190 857.7 -190 856 C-190.99 855.67 -191.98 855.34 -193 855 C-193 853.68 -193 852.36 -193 851 C-193.66 851 -194.32 851 -195 851 C-195 849.35 -195 847.7 -195 846 C-195.66 846 -196.32 846 -197 846 C-197 844.35 -197 842.7 -197 841 C-197.99 841 -198.98 841 -200 841 C-200 838.69 -200 836.38 -200 834 C-200.66 834 -201.32 834 -202 834 C-202 832.35 -202 830.7 -202 829 C-202.99 828.67 -203.98 828.34 -205 828 C-205 825.69 -205 823.38 -205 821 C-205.66 821 -206.32 821 -207 821 C-207 818.69 -207 816.38 -207 814 C-207.99 814 -208.98 814 -210 814 C-210.144375 812.865625 -210.28875 811.73125 -210.4375 810.5625 C-210.61171478 807.19222799 -210.61171478 807.19222799 -212 806 C-212.07179964 804.48071962 -212.08392007 802.95832518 -212.0625 801.4375 C-212.05347656 800.61121094 -212.04445313 799.78492188 -212.03515625 798.93359375 C-212.02355469 798.29550781 -212.01195312 797.65742187 -212 797 C-212.99 796.67 -213.98 796.34 -215 796 C-215.06058594 795.21753906 -215.12117188 794.43507813 -215.18359375 793.62890625 C-215.26738281 792.61699219 -215.35117188 791.60507812 -215.4375 790.5625 C-215.51871094 789.55316406 -215.59992188 788.54382813 -215.68359375 787.50390625 C-215.73211468 785.06359221 -215.73211468 785.06359221 -217 784 C-217.28659671 780.44256151 -217.4490807 776.88500847 -217.62109375 773.3203125 C-217.75917866 769.8663828 -217.75917866 769.8663828 -220 767 C-220.25891972 764.35414791 -220.25891972 764.35414791 -220.27174377 761.10374451 C-220.28632126 759.2560144 -220.28632126 759.2560144 -220.30119324 757.37095642 C-220.30196354 756.00308236 -220.3025525 754.63520819 -220.30297852 753.26733398 C-220.31063979 751.82813032 -220.31918617 750.38893113 -220.32855225 748.94973755 C-220.34685065 745.84608401 -220.35887737 742.74249096 -220.36609077 739.63879204 C-220.37759425 734.71461872 -220.40306725 729.79057756 -220.43040466 724.86647034 C-220.47210499 717.05756519 -220.50447824 709.24865351 -220.53287882 701.4396897 C-220.58365311 687.51224001 -220.64662145 673.58484988 -220.71821922 659.65749222 C-220.74287838 654.78108493 -220.76242919 649.90469343 -220.77760136 645.02824771 C-220.78795743 641.96377482 -220.80210417 638.89932666 -220.81707764 635.8348732 C-220.82312754 634.43467495 -220.8276444 633.03446891 -220.83033562 631.63426018 C-220.84349356 625.14597637 -220.92772176 618.6878646 -221.36338431 612.21269423 C-222.32457621 597.77919572 -222.14237322 583.31533921 -222.13072467 568.85734844 C-222.1284395 564.65308665 -222.13196531 560.44882884 -222.13470459 556.24456787 C-222.13912636 548.03670791 -222.13820244 539.82885714 -222.13529195 531.62099683 C-222.13302618 524.95382257 -222.13273046 518.28665086 -222.13381577 511.61947632 C-222.133969 510.66776832 -222.13412223 509.71606031 -222.13428011 508.73551267 C-222.13459985 506.80186375 -222.13492406 504.86821483 -222.1352527 502.9345659 C-222.13809631 484.85445624 -222.13483678 466.77435166 -222.12945233 448.69424284 C-222.12497374 433.17441457 -222.12577105 417.65459376 -222.13037109 402.13476562 C-222.13571676 384.09099168 -222.13783386 366.04722216 -222.13475883 348.00344753 C-222.13444028 346.08212217 -222.13412591 344.1607968 -222.13381577 342.23947144 C-222.13366149 341.29420871 -222.13350721 340.34894598 -222.13334826 339.37503892 C-222.13248394 332.70625249 -222.13394392 326.03746886 -222.13629532 319.36868286 C-222.13909289 311.25690398 -222.13835547 303.14513479 -222.13301457 295.03335702 C-222.13037877 290.89333397 -222.12937063 286.75332709 -222.13266373 282.61330414 C-222.13562843 278.8291747 -222.134031 275.04507654 -222.12868617 271.26094997 C-222.12756289 269.88730299 -222.12815124 268.51365341 -222.13056196 267.14000809 C-222.13357326 265.28273768 -222.12990713 263.42545993 -222.12584114 261.56819153 C-222.12567879 260.53371793 -222.12551644 259.49924433 -222.12534916 258.43342304 C-222 256 -222 256 -221 254 C-220.85502545 251.18121647 -220.76575765 248.38323786 -220.71875 245.5625 C-220.70034058 244.72662354 -220.68193115 243.89074707 -220.66296387 243.02954102 C-220.60412863 240.35309982 -220.55134379 237.67659478 -220.5 235 C-220.43245894 231.47902782 -220.35879166 227.95826453 -220.28125 224.4375 C-220.26767456 223.62289307 -220.25409912 222.80828613 -220.2401123 221.96899414 C-220.11280181 216.22560362 -220.11280181 216.22560362 -219 214 C-218.34 214 -217.68 214 -217 214 C-217 209.05 -217 204.1 -217 199 C-216.34 199 -215.68 199 -215 199 C-215.01160156 198.30132812 -215.02320313 197.60265625 -215.03515625 196.8828125 C-215.04417969 195.97273437 -215.05320312 195.06265625 -215.0625 194.125 C-215.07410156 193.22007812 -215.08570313 192.31515625 -215.09765625 191.3828125 C-215 189 -215 189 -214 187 C-213.34 187 -212.68 187 -212 187 C-212.020625 185.865625 -212.04125 184.73125 -212.0625 183.5625 C-212 180 -212 180 -211 179 C-210.63239269 176.67182036 -210.29758419 174.3381615 -210 172 C-209.01 172 -208.02 172 -207 172 C-207 169.69 -207 167.38 -207 165 C-206.34 165 -205.68 165 -205 165 C-205 162.69 -205 160.38 -205 158 C-204.01 157.67 -203.02 157.34 -202 157 C-202 155.35 -202 153.7 -202 152 C-201.34 152 -200.68 152 -200 152 C-200 149.69 -200 147.38 -200 145 C-199.01 145 -198.02 145 -197 145 C-197 143.35 -197 141.7 -197 140 C-196.34 140 -195.68 140 -195 140 C-195 138.35 -195 136.7 -195 135 C-194.34 135 -193.68 135 -193 135 C-192.67 133.35 -192.34 131.7 -192 130 C-191.34 130 -190.68 130 -190 130 C-190 128.35 -190 126.7 -190 125 C-189.34 125 -188.68 125 -188 125 C-187.505 123.02 -187.505 123.02 -187 121 C-186.34 121 -185.68 121 -185 121 C-185 120.01 -185 119.02 -185 118 C-184.34 118 -183.68 118 -183 118 C-183 116.35 -183 114.7 -183 113 C-182.01 113 -181.02 113 -180 113 C-179.855625 112.21625 -179.71125 111.4325 -179.5625 110.625 C-179 108 -179 108 -178 106 C-177.01 106 -176.02 106 -175 106 C-175 105.01 -175 104.02 -175 103 C-174.34 103 -173.68 103 -173 103 C-172.67 101.35 -172.34 99.7 -172 98 C-171.34 98 -170.68 98 -170 98 C-170 97.34 -170 96.68 -170 96 C-169.34 96 -168.68 96 -168 96 C-168 95.01 -168 94.02 -168 93 C-167.01 93 -166.02 93 -165 93 C-165 91.68 -165 90.36 -165 89 C-164.34 89 -163.68 89 -163 89 C-163 88.01 -163 87.02 -163 86 C-160.525 85.01 -160.525 85.01 -158 84 C-158 83.01 -158 82.02 -158 81 C-157.34 81 -156.68 81 -156 81 C-156 80.34 -156 79.68 -156 79 C-155.01 79 -154.02 79 -153 79 C-153 78.01 -153 77.02 -153 76 C-152.34 76 -151.68 76 -151 76 C-151 75.34 -151 74.68 -151 74 C-150.01 74 -149.02 74 -148 74 C-148 73.01 -148 72.02 -148 71 C-147.34 71 -146.68 71 -146 71 C-146 70.34 -146 69.68 -146 69 C-145.01 69 -144.02 69 -143 69 C-143 68.01 -143 67.02 -143 66 C-142.34 66 -141.68 66 -141 66 C-141 65.34 -141 64.68 -141 64 C-140.01 64 -139.02 64 -138 64 C-138 63.01 -138 62.02 -138 61 C-137.34 61 -136.68 61 -136 61 C-136 60.34 -136 59.68 -136 59 C-135.01 59 -134.02 59 -133 59 C-132.34 57.35 -131.68 55.7 -131 54 C-129.35 54 -127.7 54 -126 54 C-126 53.34 -126 52.68 -126 52 C-125.34 52 -124.68 52 -124 52 C-124 51.01 -124 50.02 -124 49 C-123.01 49 -122.02 49 -121 49 C-121 48.34 -121 47.68 -121 47 C-119.35 47 -117.7 47 -116 47 C-116 46.01 -116 45.02 -116 44 C-115.34 44 -114.68 44 -114 44 C-114 43.34 -114 42.68 -114 42 C-112.35 42 -110.7 42 -109 42 C-109 41.01 -109 40.02 -109 39 C-108.01 39 -107.02 39 -106 39 C-106 38.34 -106 37.68 -106 37 C-104.68 37 -103.36 37 -102 37 C-101.67 36.01 -101.34 35.02 -101 34 C-98 32 -98 32 -94 32 C-93.67 31.01 -93.34 30.02 -93 29 C-91.68 29 -90.36 29 -89 29 C-89 28.34 -89 27.68 -89 27 C-87.35 27 -85.7 27 -84 27 C-83.67 26.01 -83.34 25.02 -83 24 C-81.68 24 -80.36 24 -79 24 C-79 23.34 -79 22.68 -79 22 C-77.35 22 -75.7 22 -74 22 C-74 21.34 -74 20.68 -74 20 C-71.69 20 -69.38 20 -67 20 C-67 19.01 -67 18.02 -67 17 C-65.35 17 -63.7 17 -62 17 C-62 16.34 -62 15.68 -62 15 C-59.69 15 -57.38 15 -55 15 C-55 14.01 -55 13.02 -55 12 C-52.36 12 -49.72 12 -47 12 C-47 11.34 -47 10.68 -47 10 C-44.69 10 -42.38 10 -40 10 C-40 9.01 -40 8.02 -40 7 C-36.7 7 -33.4 7 -30 7 C-30 6.34 -30 5.68 -30 5 C-26.04 5 -22.08 5 -18 5 C-17.67 4.01 -17.34 3.02 -17 2 C-11.39 2 -5.78 2 0 2 C0 1.34 0 0.68 0 0 Z " fill="#EEF5FE" transform="translate(282,26)"/>
<path d="M0 0 C1.44270264 0.0009668 1.44270264 0.0009668 2.91455078 0.00195312 C4.38045654 0.00098633 4.38045654 0.00098633 5.87597656 0 C15.69554681 0.06951908 25.36208113 1.00628978 35.10205078 2.18945312 C35.10205078 2.84945312 35.10205078 3.50945313 35.10205078 4.18945312 C39.06205078 4.18945312 43.02205078 4.18945312 47.10205078 4.18945312 C47.10205078 5.17945313 47.10205078 6.16945313 47.10205078 7.18945312 C47.67310547 7.34800781 48.24416016 7.5065625 48.83251953 7.66992188 C57.81588456 10.25496014 66.43395964 13.71260326 75.10205078 17.18945312 C75.10205078 17.84945312 75.10205078 18.50945313 75.10205078 19.18945312 C75.82134766 19.30546875 76.54064453 19.42148437 77.28173828 19.54101562 C80.2148554 20.21538881 82.54458255 21.21091411 85.22705078 22.56445312 C86.49935547 23.19480469 86.49935547 23.19480469 87.79736328 23.83789062 C89.96076546 25.10659767 91.37610926 26.40277466 93.10205078 28.18945312 C95.20537969 28.90392955 95.20537969 28.90392955 97.10205078 29.18945312 C97.10205078 29.84945312 97.10205078 30.50945313 97.10205078 31.18945312 C98.42205078 31.51945313 99.74205078 31.84945312 101.10205078 32.18945312 C101.10205078 32.84945312 101.10205078 33.50945313 101.10205078 34.18945312 C101.76205078 34.18945312 102.42205078 34.18945312 103.10205078 34.18945312 C103.10205078 34.84945312 103.10205078 35.50945313 103.10205078 36.18945312 C104.42205078 36.18945312 105.74205078 36.18945312 107.10205078 36.18945312 C107.18455078 36.97320313 107.26705078 37.75695312 107.35205078 38.56445312 C107.59955078 39.43070313 107.84705078 40.29695312 108.10205078 41.18945312 C109.86796965 42.19861346 109.86796965 42.19861346 112.10205078 43.18945312 C113.68217941 44.68685251 115.1619713 46.2491547 116.63720703 47.84960938 C118.17706746 49.44054012 118.17706746 49.44054012 121.10205078 50.18945312 C122.99579078 52.42750949 124.66828759 54.78125502 126.38330078 57.15820312 C128.02177623 59.45155436 128.02177623 59.45155436 131.10205078 60.18945312 C131.10205078 61.17945313 131.10205078 62.16945313 131.10205078 63.18945312 C131.76205078 63.18945312 132.42205078 63.18945312 133.10205078 63.18945312 C136.10205078 67.57406851 136.10205078 67.57406851 136.10205078 70.18945312 C136.76205078 70.18945312 137.42205078 70.18945312 138.10205078 70.18945312 C138.10205078 71.17945313 138.10205078 72.16945313 138.10205078 73.18945312 C139.09205078 73.51945313 140.08205078 73.84945312 141.10205078 74.18945312 C142.19970703 75.86132812 142.19970703 75.86132812 143.16455078 77.93945312 C143.67888672 79.03193359 143.67888672 79.03193359 144.20361328 80.14648438 C144.85335358 81.62393731 145.46015481 83.12052359 146.03955078 84.62695312 C147.05918258 87.08606511 148.23978849 89.30594903 149.53955078 91.62695312 C149.97525391 92.40683594 150.41095703 93.18671875 150.85986328 93.99023438 C151.86613615 95.77178037 152.88798956 97.54451999 153.91455078 99.31445312 C155.34004248 102.76564355 155.32395585 105.49103535 155.10205078 109.18945312 C155.76205078 109.18945312 156.42205078 109.18945312 157.10205078 109.18945312 C157.37017578 110.32382812 157.63830078 111.45820312 157.91455078 112.62695312 C158.66201311 115.67019261 159.58225018 118.56276423 160.66455078 121.50195312 C162.13655684 125.77077069 162.567635 129.82244797 162.79345703 134.31835938 C163.04785285 137.36138578 163.04785285 137.36138578 164.08251953 140.90820312 C165.314554 145.62553238 165.6227189 150.27029575 165.85205078 155.12695312 C165.90748047 155.96935547 165.96291016 156.81175781 166.02001953 157.6796875 C166.55319727 168.17359488 164.73360877 174.63735031 157.82736313 182.81236613 C153.08042104 186.95277018 148.51269725 186.67989423 142.44078064 186.51225281 C141.18760735 186.52165148 139.93443405 186.53105015 138.64328581 186.54073364 C135.18471868 186.56520872 131.72993361 186.52152475 128.27184832 186.46617496 C124.53578194 186.41849663 120.79991434 186.43475894 117.06362915 186.44309998 C110.59714986 186.4488572 104.13189507 186.41446185 97.6657238 186.35248375 C88.31704625 186.26293541 78.96895844 186.23442301 69.61989851 186.22061584 C54.45060937 186.19656403 39.28197234 186.1234239 24.11303711 186.01928711 C9.38129938 185.91825715 -5.35026099 185.84042469 -20.08227539 185.79370117 C-21.4452791 185.78936623 -21.4452791 185.78936623 -22.83581824 185.78494372 C-27.39452315 185.7705879 -31.95322931 185.75668721 -36.51193631 185.74301279 C-74.3077343 185.62905099 -112.1027909 185.43537054 -149.89794922 185.18945312 C-149.89794922 184.19945312 -149.89794922 183.20945312 -149.89794922 182.18945312 C-150.49091797 182.08890625 -151.08388672 181.98835937 -151.69482422 181.88476562 C-155.59451798 180.65401121 -157.83679298 177.61797771 -159.89794922 174.18945312 C-160.27294922 170.25195312 -160.27294922 170.25195312 -159.89794922 167.18945312 C-160.55794922 167.18945312 -161.21794922 167.18945312 -161.89794922 167.18945312 C-162.27266268 157.90488628 -161.62200072 149.28844031 -160.04199219 140.14208984 C-158.90090078 133.49547041 -158.24885465 126.92925743 -157.89794922 120.18945312 C-156.90794922 120.18945312 -155.91794922 120.18945312 -154.89794922 120.18945312 C-154.89794922 117.87945313 -154.89794922 115.56945312 -154.89794922 113.18945312 C-154.23794922 113.18945312 -153.57794922 113.18945312 -152.89794922 113.18945312 C-152.89794922 110.54945313 -152.89794922 107.90945313 -152.89794922 105.18945312 C-151.90794922 105.18945312 -150.91794922 105.18945312 -149.89794922 105.18945312 C-149.72585938 104.09117187 -149.72585938 104.09117187 -149.55029297 102.97070312 C-148.88504403 100.13443219 -147.94001576 98.18320327 -146.46044922 95.68945312 C-144.66093776 92.57511238 -143.20261488 89.54430769 -141.89794922 86.18945312 C-141.12451172 84.92101562 -141.12451172 84.92101562 -140.33544922 83.62695312 C-139.02682896 81.40798835 -138.36262485 79.69870156 -137.89794922 77.18945312 C-137.23794922 77.18945312 -136.57794922 77.18945312 -135.89794922 77.18945312 C-135.62982422 76.62742187 -135.36169922 76.06539062 -135.08544922 75.48632812 C-133.81755132 73.03394666 -132.4082258 70.7501763 -130.89794922 68.43945312 C-130.38232422 67.64023437 -129.86669922 66.84101562 -129.33544922 66.01757812 C-128.86107422 65.41429687 -128.38669922 64.81101562 -127.89794922 64.18945312 C-127.23794922 64.18945312 -126.57794922 64.18945312 -125.89794922 64.18945312 C-125.89794922 62.53945313 -125.89794922 60.88945313 -125.89794922 59.18945312 C-125.25857422 58.92132812 -124.61919922 58.65320313 -123.96044922 58.37695312 C-121.56663236 57.3027756 -121.56663236 57.3027756 -120.89794922 54.18945312 C-119.90794922 53.55007813 -118.91794922 52.91070313 -117.89794922 52.25195312 C-114.78630874 50.52701348 -114.78630874 50.52701348 -114.02294922 47.93945312 C-113.98169922 47.36195313 -113.94044922 46.78445313 -113.89794922 46.18945312 C-112.90794922 46.18945312 -111.91794922 46.18945312 -110.89794922 46.18945312 C-110.89794922 45.52945313 -110.89794922 44.86945312 -110.89794922 44.18945312 C-109.03466797 42.71679688 -109.03466797 42.71679688 -106.58544922 41.12695312 C-105.78494141 40.59972656 -104.98443359 40.0725 -104.15966797 39.52929688 C-101.89794922 38.18945312 -101.89794922 38.18945312 -98.89794922 37.18945312 C-98.89794922 36.19945312 -98.89794922 35.20945312 -98.89794922 34.18945312 C-96.00960919 32.08174554 -94.51332527 31.18945312 -90.89794922 31.18945312 C-90.89794922 30.52945313 -90.89794922 29.86945312 -90.89794922 29.18945312 C-87.43641076 26.18945312 -87.43641076 26.18945312 -84.89794922 26.18945312 C-84.89794922 25.52945313 -84.89794922 24.86945312 -84.89794922 24.18945312 C-83.90214844 23.8259375 -83.90214844 23.8259375 -82.88623047 23.45507812 C-77.8388389 21.53927987 -74.08640655 19.62613607 -69.89794922 16.18945312 C-64.9238659 13.4695424 -60.68123367 11.59629575 -54.89794922 12.18945312 C-54.89794922 11.19945312 -54.89794922 10.20945312 -54.89794922 9.18945312 C-52.25794922 9.18945312 -49.61794922 9.18945312 -46.89794922 9.18945312 C-46.89794922 8.52945313 -46.89794922 7.86945312 -46.89794922 7.18945312 C-46.25986328 7.05667969 -45.62177734 6.92390625 -44.96435547 6.78710938 C-44.13806641 6.61050781 -43.31177734 6.43390625 -42.46044922 6.25195312 C-41.63673828 6.07792969 -40.81302734 5.90390625 -39.96435547 5.72460938 C-37.92133718 5.38192319 -37.92133718 5.38192319 -36.89794922 4.18945312 C-34.87830723 4.11701259 -32.85627798 4.10568124 -30.83544922 4.12695312 C-29.73072266 4.13597656 -28.62599609 4.145 -27.48779297 4.15429688 C-26.63314453 4.16589844 -25.77849609 4.1775 -24.89794922 4.18945312 C-24.89794922 3.52945313 -24.89794922 2.86945312 -24.89794922 2.18945312 C-23.07457031 2.09857422 -23.07457031 2.09857422 -21.21435547 2.00585938 C-19.62970694 1.92146981 -18.0450722 1.83682102 -16.46044922 1.75195312 C-15.65800781 1.71263672 -14.85556641 1.67332031 -14.02880859 1.6328125 C-8.93387239 1.35334343 -5.18362653 0.04138624 0 0 Z " fill="#155CFC" transform="translate(552.89794921875,538.810546875)"/>
<path d="M0 0 C14.19 0 28.38 0 43 0 C43.495 0.99 43.495 0.99 44 2 C46.12576782 2.46651207 46.12576782 2.46651207 48.5625 2.625 C49.38878906 2.69976562 50.21507812 2.77453125 51.06640625 2.8515625 C51.70449219 2.90054687 52.34257813 2.94953125 53 3 C53 3.66 53 4.32 53 5 C53.886875 5.12375 54.77375 5.2475 55.6875 5.375 C58.70387502 5.94412736 61.20326054 6.76614436 64 8 C64 8.99 64 9.98 64 11 C64.804375 11.1546875 64.804375 11.1546875 65.625 11.3125 C68.6711608 12.19428339 71.25527994 13.41416174 74 15 C74.33 15.99 74.66 16.98 75 18 C75.99 18.33 76.98 18.66 78 19 C78 19.66 78 20.32 78 21 C79.65 21 81.3 21 83 21 C83.33 21.99 83.66 22.98 84 24 C86.00016466 25.20882096 86.00016466 25.20882096 88 26 C88 26.66 88 27.32 88 28 C88.8353125 28.1546875 88.8353125 28.1546875 89.6875 28.3125 C95.55276294 30.05622682 98.01558696 33.09344677 101.08203125 38.16015625 C102 40 102 40 102 42 C102.66 42 103.32 42 104 42 C104 43.32 104 44.64 104 46 C104.66 46 105.32 46 106 46 C106 47.32 106 48.64 106 50 C106.99 50 107.98 50 109 50 C109 50.99 109 51.98 109 53 C109.99 53 110.98 53 112 53 C114.19852198 58.18223038 115.6878944 63.53289334 117 69 C117.66 69 118.32 69 119 69 C119 72.3 119 75.6 119 79 C119.99 79 120.98 79 122 79 C122.81027418 90.6625037 123.29853439 102.15482331 122.1875 113.8125 C122.10516113 114.70670654 122.02282227 115.60091309 121.93798828 116.5222168 C121.26638758 122.73361242 121.26638758 122.73361242 119 125 C118.57557555 127.39993356 118.57557555 127.39993356 118.4375 130.0625 C118.09722222 134.90277778 118.09722222 134.90277778 117 136 C116.63239269 138.32817964 116.29758419 140.6618385 116 143 C115.34 143 114.68 143 114 143 C113.81630859 143.85851562 113.81630859 143.85851562 113.62890625 144.734375 C112.97237132 147.09953191 112.06276488 149.07206797 110.9375 151.25 C110.57527344 151.95640625 110.21304688 152.6628125 109.83984375 153.390625 C109.56269531 153.92171875 109.28554688 154.4528125 109 155 C108.34 155 107.68 155 107 155 C107 156.65 107 158.3 107 160 C106.34 160 105.68 160 105 160 C104.731875 160.556875 104.46375 161.11375 104.1875 161.6875 C101.22803165 167.4506752 97.69274624 171.64349464 93.125 176.1875 C92.51269531 176.81591797 91.90039062 177.44433594 91.26953125 178.09179688 C88.08810782 181.27662654 85.48324971 183.85185068 81 185 C80.01 185 79.02 185 78 185 C77.67 185.99 77.34 186.98 77 188 C74.75 189.53515625 74.75 189.53515625 72 191.0625 C68.34532309 192.89143563 68.34532309 192.89143563 66 196 C60.50292709 198.84293064 54.72269364 200.4578675 48.65234375 201.49609375 C45.96497115 201.96515196 45.96497115 201.96515196 43.25390625 202.78515625 C25.50008165 207.74883933 1.73590412 207.00820833 -15 199 C-16.155 198.525625 -17.31 198.05125 -18.5 197.5625 C-26.92297708 193.80224238 -34.9218 189.81542752 -42.125 184 C-42.97320312 183.319375 -43.82140625 182.63875 -44.6953125 181.9375 C-47 180 -47 180 -48.6796875 178.2734375 C-49.94361387 176.82090453 -49.94361387 176.82090453 -52 176.625 C-55.0488233 175.67224272 -55.4885399 173.79038788 -57 171 C-57.90510174 169.61735991 -58.82317358 168.24317234 -59.75 166.875 C-60.83395089 165.25041187 -61.9172519 163.62539 -63 162 C-63.56074219 161.16339844 -64.12148438 160.32679688 -64.69921875 159.46484375 C-70.97014877 149.89639097 -76.25151396 139.82895968 -80 129 C-80.33 128.34 -80.66 127.68 -81 127 C-83.24689344 115.35551576 -83.21586874 103.81281722 -83 92 C-82.34 92 -81.68 92 -81 92 C-80.95101563 91.03578125 -80.90203125 90.0715625 -80.8515625 89.078125 C-80.77679688 87.81484375 -80.70203125 86.5515625 -80.625 85.25 C-80.55539062 83.99703125 -80.48578125 82.7440625 -80.4140625 81.453125 C-80.03747424 78.31252098 -79.52609771 76.67654061 -78 74 C-77.71125 72.7625 -77.4225 71.525 -77.125 70.25 C-76.23187612 66.44359107 -74.76333168 63.252166 -72.9375 59.80859375 C-71.90541369 57.90163151 -71.90541369 57.90163151 -71 55.375 C-69.69761348 52.28183202 -67.92408443 49.74869204 -66 47 C-65.57074219 46.37222656 -65.14148438 45.74445313 -64.69921875 45.09765625 C-61.25293427 40.12646714 -61.25293427 40.12646714 -59 39 C-58.67 38.01 -58.34 37.02 -58 36 C-57.01 36 -56.02 36 -55 36 C-54.34 34.02 -53.68 32.04 -53 30 C-52.34 30 -51.68 30 -51 30 C-51 29.34 -51 28.68 -51 28 C-48.8828125 26.0546875 -48.8828125 26.0546875 -46.125 23.875 C-45.22007812 23.15054687 -44.31515625 22.42609375 -43.3828125 21.6796875 C-41 20 -41 20 -39 20 C-39 19.34 -39 18.68 -39 18 C-35.26875639 14.99317337 -31.07623538 12.91766905 -26.5625 11.375 C-25.386875 10.92125 -24.21125 10.4675 -23 10 C-22.67 9.01 -22.34 8.02 -22 7 C-20.35 7 -18.7 7 -17 7 C-17 6.34 -17 5.68 -17 5 C-14.69 5 -12.38 5 -10 5 C-10 4.34 -10 3.68 -10 3 C-6.7 3 -3.4 3 0 3 C0 2.01 0 1.02 0 0 Z " fill="#165DFC" transform="translate(535,314)"/>
<path d="M0 0 C11.55 0 23.1 0 35 0 C35 0.99 35 1.98 35 3 C36.093125 3.12375 37.18625 3.2475 38.3125 3.375 C43.58140765 4.02770131 48.78520874 5.01264063 54 6 C54 6.66 54 7.32 54 8 C55.051875 7.95875 56.10375 7.9175 57.1875 7.875 C60.75906093 7.99210036 62.87804309 8.34719928 66 10 C66.33 10.66 66.66 11.32 67 12 C68.81767131 12.83177624 68.81767131 12.83177624 70.9375 13.5 C73.70455204 14.42402464 74.89137369 14.89137369 77 17 C78.6635479 17.67441131 80.33066942 18.3400321 82 19 C86.8125 21.625 86.8125 21.625 88 24 C88.75434326 24.45117188 89.50868652 24.90234375 90.28588867 25.3671875 C94.94234169 28.16851499 98.4959008 32.16833924 102.3125 36 C103.14845703 36.81984375 103.98441406 37.6396875 104.84570312 38.484375 C105.63525391 39.27328125 106.42480469 40.0621875 107.23828125 40.875 C107.96055908 41.59429688 108.68283691 42.31359375 109.42700195 43.0546875 C111 45 111 45 111 48 C111.99 48.33 112.98 48.66 114 49 C115.38671875 50.77734375 115.38671875 50.77734375 116.6875 52.9375 C117.12449219 53.64777344 117.56148437 54.35804688 118.01171875 55.08984375 C119 57 119 57 119 59 C119.66 59 120.32 59 121 59 C123.01686546 61.80607369 124.25972236 64.63628413 125.375 67.875 C126.42821182 70.86096756 127.67635123 73.07069338 129.625 75.5625 C132.19896264 78.92017663 132.59410342 81.77867552 133 86 C133.99 87.485 133.99 87.485 135 89 C136.53811302 94.07577297 136 98.44160064 136 104 C56.47 104 -23.06 104 -105 104 C-104.30161957 96.31781524 -103.65510098 90.83199571 -101 83.9375 C-100.72671875 83.19306641 -100.4534375 82.44863281 -100.171875 81.68164062 C-99.20593259 79.07028161 -98.24616282 76.49232564 -97 74 C-96.34 74 -95.68 74 -95 74 C-95 72.35 -95 70.7 -95 69 C-93.515 68.505 -93.515 68.505 -92 68 C-91.87625 66.9275 -91.7525 65.855 -91.625 64.75 C-91.10356064 61.62136385 -90.59911746 59.66519576 -89 57 C-88.34 57 -87.68 57 -87 57 C-86.87625 56.195625 -86.7525 55.39125 -86.625 54.5625 C-86.315625 53.2940625 -86.315625 53.2940625 -86 52 C-85.01 51.505 -85.01 51.505 -84 51 C-83.67 50.01 -83.34 49.02 -83 48 C-82.34 48 -81.68 48 -81 48 C-80.731875 47.236875 -80.46375 46.47375 -80.1875 45.6875 C-79.04204753 43.09516021 -78.23584819 41.69924463 -76 40 C-75.01 40 -74.02 40 -73 40 C-72.34 38.35 -71.68 36.7 -71 35 C-70.01 35 -69.02 35 -68 35 C-67.731875 34.4225 -67.46375 33.845 -67.1875 33.25 C-65.95395569 30.91275816 -64.76626597 28.97006589 -63 27 C-61.67696283 26.6278958 -60.34262065 26.29369827 -59 26 C-58.56945312 25.55914063 -58.13890625 25.11828125 -57.6953125 24.6640625 C-54.93255563 21.95223203 -51.5261207 20.3083557 -48.1796875 18.40234375 C-45.87976824 17.18472587 -45.87976824 17.18472587 -45 15 C-43.68 15 -42.36 15 -41 15 C-40.67 14.01 -40.34 13.02 -40 12 C-37.375 11 -37.375 11 -34 10 C-32.845 9.46375 -31.69 8.9275 -30.5 8.375 C-27.00971879 7.0038181 -24.7013105 6.7291724 -21 7 C-21 6.34 -21 5.68 -21 5 C-14.16217825 2.5579208 -7.20568193 2.37977242 0 2 C0 1.34 0 0.68 0 0 Z " fill="#EDF5FE" transform="translate(540,580)"/>
<path d="M0 0 C2.09582522 0.00316112 4.19023716 -0.02035221 6.28588867 -0.0456543 C13.39438459 -0.07897017 19.19861137 0.2272152 25.66674805 3.31567383 C26.46725586 3.59411133 27.26776367 3.87254883 28.0925293 4.15942383 C33.35076615 5.98837578 33.35076615 5.98837578 35.0847168 7.78442383 C36.63518534 9.48362448 36.63518534 9.48362448 39.0847168 10.25317383 C42.08451268 11.48758303 43.72245246 13.00362712 45.97924805 15.31567383 C46.67663086 16.01692383 47.37401367 16.71817383 48.0925293 17.44067383 C49.66674805 19.31567383 49.66674805 19.31567383 49.66674805 21.31567383 C50.65674805 21.31567383 51.64674805 21.31567383 52.66674805 21.31567383 C55.5794118 27.90082667 55.5794118 27.90082667 56.16674805 30.69067383 C56.33174805 31.22692383 56.49674805 31.76317383 56.66674805 32.31567383 C58.15174805 32.81067383 58.15174805 32.81067383 59.66674805 33.31567383 C62.18842317 38.49174381 61.86647036 43.70125759 61.66674805 49.31567383 C62.32674805 49.31567383 62.98674805 49.31567383 63.66674805 49.31567383 C64.03576855 69.28378317 64.03576855 69.28378317 61.66674805 78.31567383 C60.67674805 78.31567383 59.68674805 78.31567383 58.66674805 78.31567383 C58.6409668 78.94473633 58.61518555 79.57379883 58.58862305 80.22192383 C57.86452761 91.14918228 53.25082514 98.41258174 45.10424805 105.56567383 C38.48817662 110.31567383 38.48817662 110.31567383 34.66674805 110.31567383 C34.66674805 110.97567383 34.66674805 111.63567383 34.66674805 112.31567383 C31.2484289 114.85499663 28.90897907 115.67929363 24.66674805 115.31567383 C24.66674805 116.30567383 24.66674805 117.29567383 24.66674805 118.31567383 C19.67009083 119.94275432 15.5119341 120.55505297 10.2019043 120.51098633 C9.18464516 120.50674149 9.18464516 120.50674149 8.14683533 120.50241089 C6.00745039 120.49132799 3.86850374 120.46624743 1.72924805 120.44067383 C0.26766561 120.43062859 -1.19392348 120.42150546 -2.65551758 120.41333008 C-6.21490175 120.39142808 -9.77403398 120.35698249 -13.33325195 120.31567383 C-13.66325195 119.32567383 -13.99325195 118.33567383 -14.33325195 117.31567383 C-15.13762695 117.23317383 -15.94200195 117.15067383 -16.77075195 117.06567383 C-22.72692043 115.81174362 -28.1079781 113.77966372 -32.33325195 109.31567383 C-33.98857818 108.29701154 -35.65585333 107.2975657 -37.33325195 106.31567383 C-39.64575195 104.75317383 -39.64575195 104.75317383 -41.33325195 103.31567383 C-41.33325195 102.65567383 -41.33325195 101.99567383 -41.33325195 101.31567383 C-42.81825195 100.82067383 -42.81825195 100.82067383 -44.33325195 100.31567383 C-45.36911986 98.33401349 -46.36437614 96.33093551 -47.33325195 94.31567383 C-48.29231445 93.14004883 -48.29231445 93.14004883 -49.27075195 91.94067383 C-54.37711922 85.44166094 -55.99668553 79.52789459 -56.33325195 71.31567383 C-56.99325195 71.31567383 -57.65325195 71.31567383 -58.33325195 71.31567383 C-58.39159591 67.44073766 -58.42696396 63.56591547 -58.45825195 59.69067383 C-58.47500977 58.59625977 -58.49176758 57.5018457 -58.5090332 56.37426758 C-58.54199141 50.93616307 -58.50738029 46.39387251 -56.33325195 41.31567383 C-56.08704102 40.48422852 -55.84083008 39.6527832 -55.5871582 38.79614258 C-55.35899414 38.03946289 -55.13083008 37.2827832 -54.89575195 36.50317383 C-54.67016602 35.73360352 -54.44458008 34.9640332 -54.2121582 34.17114258 C-53.92211914 33.55883789 -53.63208008 32.9465332 -53.33325195 32.31567383 C-52.34325195 31.98567383 -51.35325195 31.65567383 -50.33325195 31.31567383 C-50.33325195 30.32567383 -50.33325195 29.33567383 -50.33325195 28.31567383 C-49.00543317 27.30836303 -47.67115837 26.30954716 -46.33325195 25.31567383 C-45.90012695 24.59379883 -45.46700195 23.87192383 -45.02075195 23.12817383 C-40.76893202 16.04180728 -35.51687688 11.2780101 -28.33325195 7.31567383 C-27.40512695 6.75879883 -26.47700195 6.20192383 -25.52075195 5.62817383 C-24.79887695 5.19504883 -24.07700195 4.76192383 -23.33325195 4.31567383 C-22.34325195 3.65567383 -21.35325195 2.99567383 -20.33325195 2.31567383 C-13.54580812 -0.0027512 -7.07395973 -0.02232055 0 0 Z " fill="#EDF4FE" transform="translate(552.333251953125,356.684326171875)"/>
<path d="M0 0 C1.32 0 2.64 0 4 0 C3.125 3.875 3.125 3.875 2 5 C0.38923714 5.097084 -1.22580796 5.12371602 -2.83949375 5.12304783 C-3.89347026 5.12503888 -4.94744678 5.12702993 -6.03336197 5.12908131 C-7.20551552 5.12616847 -8.37766906 5.12325563 -9.58534241 5.12025452 C-10.81942964 5.12110894 -12.05351688 5.12196337 -13.3250007 5.12284368 C-16.76603762 5.12421193 -20.20701836 5.12106423 -23.64804852 5.11606562 C-27.35290538 5.11176461 -31.05776037 5.1132073 -34.76261902 5.1139679 C-41.18671649 5.11449335 -47.61080383 5.11134428 -54.03489876 5.10573006 C-63.32316848 5.097618 -72.61143329 5.09500014 -81.89970618 5.09374207 C-96.96772682 5.09155108 -112.03574206 5.08488974 -127.10375977 5.07543945 C-141.74471001 5.06626653 -156.38565879 5.05918511 -171.02661133 5.05493164 C-171.92842127 5.05466892 -172.83023121 5.05440619 -173.75936873 5.05413551 C-178.2832876 5.05283051 -182.80720649 5.05156679 -187.33112538 5.05032361 C-224.88742073 5.03994955 -262.44370995 5.02232998 -300 5 C-300 4.01 -300 3.02 -300 2 C-299.05155719 1.99739563 -299.05155719 1.99739563 -298.08395392 1.99473864 C-260.64880716 1.89181754 -223.21367866 1.78372831 -185.77856651 1.66888306 C-181.28849433 1.65511269 -176.79842201 1.64138571 -172.30834961 1.62768555 C-171.4144181 1.62495724 -170.5204866 1.62222894 -169.59946626 1.61941796 C-155.10542997 1.57528534 -140.61138584 1.5346716 -126.1173358 1.49534739 C-111.25652584 1.45495019 -96.3957305 1.41079683 -81.53494209 1.36312145 C-72.35742723 1.33379822 -63.17991352 1.30744112 -54.00237965 1.28482103 C-47.71781844 1.26905128 -41.43327515 1.24964891 -35.1487338 1.22733159 C-31.51730796 1.21454496 -27.885896 1.20341578 -24.25445366 1.19658089 C-20.32676079 1.1891468 -16.39911915 1.17409181 -12.47145081 1.15821838 C-11.31097011 1.15724028 -10.15048941 1.15626217 -8.95484263 1.15525442 C-7.9113163 1.14977998 -6.86778998 1.14430554 -5.79264164 1.1386652 C-4.43077468 1.13467814 -4.43077468 1.13467814 -3.04139525 1.13061053 C-1.00585135 1.22602295 -1.00585135 1.22602295 0 0 Z " fill="#094FFC" transform="translate(706,718)"/>
<path d="M0 0 C3.69672471 3.93522308 4.41140676 6.70266087 5 12 C5.99 13.485 5.99 13.485 7 15 C8.53811302 20.07577297 8 24.44160064 8 30 C-71.53 30 -151.06 30 -233 30 C-233 28.02 -233 26.04 -233 24 C-232.67 25.32 -232.34 26.64 -232 28 C-153.13 28 -74.26 28 7 28 C7 27.01 7 26.02 7 25 C6.34 25 5.68 25 5 25 C4.93941406 24.21753906 4.87882813 23.43507813 4.81640625 22.62890625 C4.73261719 21.61699219 4.64882813 20.60507812 4.5625 19.5625 C4.48128906 18.55316406 4.40007812 17.54382813 4.31640625 16.50390625 C4.26788532 14.06359221 4.26788532 14.06359221 3 13 C2.7834375 11.2675 2.7834375 11.2675 2.5625 9.5 C2.376875 8.345 2.19125 7.19 2 6 C1.01 5.505 1.01 5.505 0 5 C0 3.35 0 1.7 0 0 Z " fill="#9BBAFD" transform="translate(668,654)"/>
<path d="M0 0 C5.75 1.75 5.75 1.75 8 4 C10.27806123 4.30752696 10.27806123 4.30752696 12.96254158 4.26171303 C14.01850914 4.26917852 15.0744767 4.27664401 16.16244328 4.28433573 C17.91630433 4.28143363 17.91630433 4.28143363 19.70559692 4.2784729 C20.94053859 4.2842653 22.17548025 4.2900577 23.44784439 4.29602563 C26.88666071 4.31013703 30.32528277 4.3152596 33.76411414 4.31667423 C37.4682956 4.32035779 41.17243175 4.33550796 44.87658691 4.34928894 C51.29792942 4.37159857 57.7192559 4.38658953 64.14062881 4.39665604 C73.42493147 4.41122114 82.70917828 4.43675178 91.99344824 4.46498732 C107.05535047 4.51049485 122.11726072 4.54709324 137.17919922 4.578125 C151.81332814 4.60829435 166.44743742 4.64263716 181.08154297 4.68261719 C181.98309019 4.68507874 182.8846374 4.68754028 183.81350423 4.69007643 C188.33615267 4.70245071 192.85880088 4.71490731 197.38144898 4.72740483 C234.9209389 4.83103191 272.46045222 4.92021556 310 5 C310 5.33 310 5.66 310 6 C209.35 6 108.7 6 5 6 C5 5.01 5 4.02 5 3 C4.360625 2.87625 3.72125 2.7525 3.0625 2.625 C2.381875 2.41875 1.70125 2.2125 1 2 C0.67 1.34 0.34 0.68 0 0 Z " fill="#6F99FD" transform="translate(398,718)"/>
<path d="M0 0 C1.65 0 3.3 0 5 0 C4.34 0.99 3.68 1.98 3 3 C0.81517017 3.37259549 0.81517017 3.37259549 -1.96254158 3.36914349 C-3.01850914 3.37511663 -4.0744767 3.38108978 -5.16244328 3.38724393 C-6.33168398 3.3785054 -7.50092469 3.36976688 -8.70559692 3.36076355 C-9.94053859 3.36332682 -11.17548025 3.3658901 -12.44784439 3.36853105 C-15.88679047 3.37263167 -19.32522919 3.36320514 -22.76411414 3.34819686 C-26.46827188 3.33528126 -30.17241301 3.33962278 -33.87658691 3.34190369 C-40.29797227 3.34347927 -46.71926641 3.33404042 -53.14062881 3.31719017 C-62.42490722 3.29284318 -71.70914137 3.28499932 -80.99344824 3.2812262 C-96.05539026 3.27465494 -111.11728363 3.25467553 -126.17919922 3.22631836 C-140.81331132 3.19879521 -155.44741022 3.1775531 -170.08154297 3.16479492 C-170.98309019 3.16400675 -171.8846374 3.16321858 -172.81350423 3.16240653 C-177.3361524 3.15849151 -181.85880066 3.15470036 -186.38144898 3.15097082 C-223.92100035 3.11985393 -261.46049639 3.06699983 -299 3 C-299 2.67 -299 2.34 -299 2 C-200.33 2 -101.66 2 0 2 C0 1.34 0 0.68 0 0 Z " fill="#235FFC" transform="translate(705,720)"/>
<path d="M0 0 C1.44270264 0.0009668 1.44270264 0.0009668 2.91455078 0.00195312 C4.38045654 0.00098633 4.38045654 0.00098633 5.87597656 0 C15.69554681 0.06951908 25.36208113 1.00628978 35.10205078 2.18945312 C35.10205078 2.84945312 35.10205078 3.50945313 35.10205078 4.18945312 C39.06205078 4.18945312 43.02205078 4.18945312 47.10205078 4.18945312 C47.10205078 5.17945313 47.10205078 6.16945313 47.10205078 7.18945312 C45.43593173 7.23217413 43.76822193 7.23009145 42.10205078 7.18945312 C41.60705078 6.69445312 41.60705078 6.69445312 41.10205078 6.18945312 C38.91912304 5.9546362 36.73001904 5.7758199 34.53955078 5.62695312 C33.34201172 5.54316406 32.14447266 5.459375 30.91064453 5.37304688 C29.98380859 5.31246094 29.05697266 5.251875 28.10205078 5.18945312 C28.10205078 4.52945313 28.10205078 3.86945312 28.10205078 3.18945312 C10.61205078 3.18945312 -6.87794922 3.18945312 -24.89794922 3.18945312 C-24.89794922 2.85945312 -24.89794922 2.52945313 -24.89794922 2.18945312 C-23.07457031 2.09857422 -23.07457031 2.09857422 -21.21435547 2.00585938 C-19.62970694 1.92146981 -18.0450722 1.83682102 -16.46044922 1.75195312 C-15.65800781 1.71263672 -14.85556641 1.67332031 -14.02880859 1.6328125 C-8.93387239 1.35334343 -5.18362653 0.04138624 0 0 Z " fill="#5E90FC" transform="translate(552.89794921875,538.810546875)"/>
<path d="M0 0 C11.55 0 23.1 0 35 0 C35 0.66 35 1.32 35 2 C33.98015015 1.99214478 33.98015015 1.99214478 32.93969727 1.98413086 C29.81397451 1.96314929 26.68826665 1.95027313 23.5625 1.9375 C22.49322266 1.92912109 21.42394531 1.92074219 20.32226562 1.91210938 C9.88760684 1.48573474 9.88760684 1.48573474 0 4 C-2.2072923 4.07092842 -4.41667452 4.08415025 -6.625 4.0625 C-7.81351563 4.05347656 -9.00203125 4.04445313 -10.2265625 4.03515625 C-11.14179687 4.02355469 -12.05703125 4.01195312 -13 4 C-13 4.66 -13 5.32 -13 6 C-14.98 6 -16.96 6 -19 6 C-19 6.99 -19 7.98 -19 9 C-20.485 9.1546875 -20.485 9.1546875 -22 9.3125 C-25.59988029 9.8163372 -28.74884677 10.91399054 -32.10546875 12.28125 C-34.04877456 13.01850416 -35.97634131 13.533347 -38 14 C-38 14.66 -38 15.32 -38 16 C-39.65 16 -41.3 16 -43 16 C-43 16.66 -43 17.32 -43 18 C-43.99 17.67 -44.98 17.34 -46 17 C-45.67 16.34 -45.34 15.68 -45 15 C-43.68 15 -42.36 15 -41 15 C-40.67 14.01 -40.34 13.02 -40 12 C-37.375 11 -37.375 11 -34 10 C-32.845 9.46375 -31.69 8.9275 -30.5 8.375 C-27.00971879 7.0038181 -24.7013105 6.7291724 -21 7 C-21 6.34 -21 5.68 -21 5 C-14.16217825 2.5579208 -7.20568193 2.37977242 0 2 C0 1.34 0 0.68 0 0 Z " fill="#76A1FD" transform="translate(540,580)"/>
<path d="M0 0 C14.19 0 28.38 0 43 0 C43.495 0.99 43.495 0.99 44 2 C46.12576782 2.46651207 46.12576782 2.46651207 48.5625 2.625 C49.38878906 2.69976562 50.21507812 2.77453125 51.06640625 2.8515625 C51.70449219 2.90054687 52.34257813 2.94953125 53 3 C53 3.66 53 4.32 53 5 C53.886875 5.12375 54.77375 5.2475 55.6875 5.375 C58.70387502 5.94412736 61.20326054 6.76614436 64 8 C63.67 8.66 63.34 9.32 63 10 C60.36 9.67 57.72 9.34 55 9 C55 8.01 55 7.02 55 6 C53.71222656 5.86722656 52.42445313 5.73445313 51.09765625 5.59765625 C49.41924638 5.41950101 47.74086227 5.24110308 46.0625 5.0625 C45.21236328 4.97548828 44.36222656 4.88847656 43.48632812 4.79882812 C42.67744141 4.71181641 41.86855469 4.62480469 41.03515625 4.53515625 C40.2862915 4.456604 39.53742676 4.37805176 38.76586914 4.29711914 C37 4 37 4 36 3 C33.3337397 2.91144839 30.69352886 2.88475327 28.02734375 2.90234375 C26.83087975 2.90446617 26.83087975 2.90446617 25.61024475 2.90663147 C23.05262565 2.91224684 20.49509282 2.92480188 17.9375 2.9375 C16.20768355 2.94251302 14.47786574 2.94707627 12.74804688 2.95117188 C8.49866447 2.96222125 4.24934688 2.97949614 0 3 C0 2.01 0 1.02 0 0 Z " fill="#729EFD" transform="translate(535,314)"/>
<path d="M0 0 C3.3 0 6.6 0 10 0 C8.68 0.33 7.36 0.66 6 1 C6 1.66 6 2.32 6 3 C3.70370006 4.14814997 1.92301914 4.30769809 -0.625 4.5625 C-1.44226563 4.64628906 -2.25953125 4.73007812 -3.1015625 4.81640625 C-4.04128906 4.90728516 -4.04128906 4.90728516 -5 5 C-5 5.99 -5 6.98 -5 8 C-7.89588122 10.89588122 -11.39388714 11.98437363 -15.1953125 13.25390625 C-17.20549967 13.94996009 -17.20549967 13.94996009 -19 16 C-20.32 16 -21.64 16 -23 16 C-23.0625 13.75 -23.0625 13.75 -22 11 C-19.73330188 9.7557089 -17.46493302 8.86246023 -15.03125 7.9921875 C-14.02578125 7.50105469 -14.02578125 7.50105469 -13 7 C-12.67 6.01 -12.34 5.02 -12 4 C-10.35 4 -8.7 4 -7 4 C-7 3.34 -7 2.68 -7 2 C-4.69 2 -2.38 2 0 2 C0 1.34 0 0.68 0 0 Z " fill="#1D60FC" transform="translate(525,317)"/>
<path d="M0 0 C0.66 0 1.32 0 2 0 C1.88437394 1.39664108 1.757008 2.79231199 1.625 4.1875 C1.55539062 4.96480469 1.48578125 5.74210938 1.4140625 6.54296875 C1 9 1 9 -0.00390625 11.44140625 C-1.11445793 14.29399979 -1.36897337 16.70298498 -1.5625 19.75 C-1.89985694 24.89985694 -1.89985694 24.89985694 -3 26 C-3.15988491 28.51880517 -3.25934225 31.01342266 -3.31640625 33.53515625 C-3.33718735 34.28840683 -3.35796844 35.04165741 -3.37937927 35.81773376 C-3.44495425 38.2325599 -3.50379621 40.64749798 -3.5625 43.0625 C-3.6056777 44.69597529 -3.64929173 46.3294391 -3.69335938 47.96289062 C-3.80064362 51.97514464 -3.90188821 55.98751164 -4 60 C-3.34 60 -2.68 60 -2 60 C-2.33 61.32 -2.66 62.64 -3 64 C-5.4294516 60.3558226 -5.16179575 58.28758728 -5 54 C-5.66 54 -6.32 54 -7 54 C-7.37471346 44.71543315 -6.7240515 36.09898718 -5.14404297 26.95263672 C-4.00295156 20.30601728 -3.35090543 13.73980431 -3 7 C-2.01 7 -1.02 7 0 7 C0 4.69 0 2.38 0 0 Z " fill="#5C8FFC" transform="translate(398,652)"/>
<path d="M0 0 C14.52 0 29.04 0 44 0 C44 0.66 44 1.32 44 2 C42.91058105 2.02505615 41.82116211 2.0501123 40.69873047 2.07592773 C36.63953802 2.17041915 32.58050012 2.27053637 28.52148438 2.37231445 C26.76794054 2.41550598 25.01435892 2.45719155 23.26074219 2.49731445 C20.73360835 2.55540124 18.20666196 2.61898299 15.6796875 2.68359375 C14.90132538 2.70030624 14.12296326 2.71701874 13.3210144 2.73423767 C9.1179252 2.84747539 5.14712771 3.24515 1 4 C-1.29083289 4.06522873 -3.58335794 4.0858841 -5.875 4.0625 C-7.02742187 4.05347656 -8.17984375 4.04445313 -9.3671875 4.03515625 C-10.23601563 4.02355469 -11.10484375 4.01195312 -12 4 C-12 3.34 -12 2.68 -12 2 C-8.04 2 -4.08 2 0 2 C0 1.34 0 0.68 0 0 Z " fill="#0951FC" transform="translate(533,578)"/>
<path d="M0 0 C0.33 0 0.66 0 1 0 C2.22399452 6.64041122 2.11227753 13.20221697 2.0625 19.9375 C2.05798828 21.09830078 2.05347656 22.25910156 2.04882812 23.45507812 C2.03710647 26.30343934 2.0206976 29.15169222 2 32 C1.34 32 0.68 32 0 32 C0 34.64 0 37.28 0 40 C-0.66 40 -1.32 40 -2 40 C-2 43.3 -2 46.6 -2 50 C-2.99 50 -3.98 50 -5 50 C-5 52.31 -5 54.62 -5 57 C-5.66 57 -6.32 57 -7 57 C-7.12375 57.639375 -7.2475 58.27875 -7.375 58.9375 C-7.58125 59.618125 -7.7875 60.29875 -8 61 C-8.99 61.495 -8.99 61.495 -10 62 C-9.01 59.03 -9.01 59.03 -8 56 C-7.34 56 -6.68 56 -6 56 C-6.020625 54.865625 -6.04125 53.73125 -6.0625 52.5625 C-6 49 -6 49 -5 48 C-4.71693766 45.45243896 -4.55184214 42.90489978 -4.37890625 40.34765625 C-4 38 -4 38 -2 36 C-1.53561491 33.68077117 -1.53561491 33.68077117 -1.3671875 30.9765625 C-1.28339844 29.95433594 -1.19960938 28.93210937 -1.11328125 27.87890625 C-1.03464844 26.80511719 -0.95601562 25.73132813 -0.875 24.625 C-0.78863281 23.58988281 -0.70226562 22.55476563 -0.61328125 21.48828125 C-0.0503967 14.31373686 0.10147 7.1947059 0 0 Z " fill="#97B8FD" transform="translate(657,401)"/>
<path d="M0 0 C0.33 0 0.66 0 1 0 C1.01981934 1.09465576 1.03963867 2.18931152 1.06005859 3.31713867 C1.13629437 7.38947029 1.2249838 11.46145296 1.31738281 15.53344727 C1.35559841 17.29379371 1.39046413 19.05421626 1.421875 20.81469727 C1.46768714 23.34939725 1.52565417 25.88357664 1.5859375 28.41796875 C1.60326431 29.59325386 1.60326431 29.59325386 1.62094116 30.7922821 C1.73291305 34.96461112 2.17076871 38.23972413 4 42 C6.43292683 48.27439024 6.43292683 48.27439024 5 52 C2.30992402 49.30992402 1.97270764 46.63144185 1 43 C0.67 42.34 0.34 41.68 0 41 C-2.24689344 29.35551576 -2.21586874 17.81281722 -2 6 C-1.34 6 -0.68 6 0 6 C0 4.02 0 2.04 0 0 Z " fill="#7CA6FD" transform="translate(454,400)"/>
<path d="M0 0 C1.2065625 0.0309375 1.2065625 0.0309375 2.4375 0.0625 C1.1175 0.3925 -0.2025 0.7225 -1.5625 1.0625 C-1.5625 1.7225 -1.5625 2.3825 -1.5625 3.0625 C-4.63867188 3.35546875 -4.63867188 3.35546875 -7.71484375 3.6484375 C-8.32457031 3.78507813 -8.93429687 3.92171875 -9.5625 4.0625 C-9.8925 4.7225 -10.2225 5.3825 -10.5625 6.0625 C-12.55859375 6.44140625 -12.55859375 6.44140625 -15 6.625 C-18.40878205 6.8686175 -18.40878205 6.8686175 -21.5625 8.0625 C-24.33410626 8.14933445 -27.08024765 8.1780579 -29.8515625 8.16015625 C-31.07919815 8.15803383 -31.07919815 8.15803383 -32.33163452 8.15586853 C-34.95029325 8.1502629 -37.56886704 8.13770948 -40.1875 8.125 C-41.96093627 8.11998572 -43.73437387 8.11542269 -45.5078125 8.11132812 C-49.85940782 8.10029164 -54.2109395 8.08302325 -58.5625 8.0625 C-58.5625 7.4025 -58.5625 6.7425 -58.5625 6.0625 C-61.5325 6.0625 -64.5025 6.0625 -67.5625 6.0625 C-67.8925 5.0725 -68.2225 4.0825 -68.5625 3.0625 C-67.40234375 3.26166016 -67.40234375 3.26166016 -66.21875 3.46484375 C-64.65640625 3.72974609 -64.65640625 3.72974609 -63.0625 4 C-62.0415625 4.17402344 -61.020625 4.34804688 -59.96875 4.52734375 C-44.48803794 6.95951984 -29.09858615 7.54866902 -13.97265625 3.03515625 C-10.50772057 2.04687563 -7.12551834 1.55748753 -3.5625 1.0625 C-2.5625 0.0625 -2.5625 0.0625 0 0 Z " fill="#B9D1FE" transform="translate(594.5625,511.9375)"/>
<path d="M0 0 C0.66 0 1.32 0 2 0 C2.02929984 4.31248547 2.04689903 8.62494493 2.0625 12.9375 C2.07087891 14.14986328 2.07925781 15.36222656 2.08789062 16.61132812 C2.10565466 23.16625712 1.88995726 29.50401275 1 36 C0.34 35.67 -0.32 35.34 -1 35 C-1.0246519 30.17619198 -1.04283693 25.35242033 -1.05493164 20.52856445 C-1.05997174 18.88630536 -1.06680378 17.24405077 -1.07543945 15.60180664 C-1.08751926 13.24624521 -1.09323139 10.89074291 -1.09765625 8.53515625 C-1.10281754 7.79660904 -1.10797882 7.05806183 -1.11329651 6.2971344 C-1.1134925 4.53101912 -1.06194719 2.76502854 -1 1 C-0.67 0.67 -0.34 0.34 0 0 Z " fill="#0D53FC" transform="translate(654,399)"/>
<path d="M0 0 C0.33 0.66 0.66 1.32 1 2 C-0.65 2.66 -2.3 3.32 -4 4 C-4 4.66 -4 5.32 -4 6 C-5.32 6.33 -6.64 6.66 -8 7 C-8 8.32 -8 9.64 -8 11 C-8.99 11.495 -8.99 11.495 -10 12 C-10.33 12.99 -10.66 13.98 -11 15 C-11.66 15 -12.32 15 -13 15 C-13.33 16.65 -13.66 18.3 -14 20 C-14.969375 20.2475 -15.93875 20.495 -16.9375 20.75 C-17.948125 21.1625 -18.95875 21.575 -20 22 C-20.61067144 23.85744207 -20.61067144 23.85744207 -21 26 C-23.5625 28.75 -23.5625 28.75 -26 31 C-26.66 30.67 -27.32 30.34 -28 30 C-26.7260411 27.96166576 -25.38938077 25.96147874 -24 24 C-23.34 24 -22.68 24 -22 24 C-22 22.35 -22 20.7 -22 19 C-21.360625 18.731875 -20.72125 18.46375 -20.0625 18.1875 C-17.66868314 17.11332248 -17.66868314 17.11332248 -17 14 C-16.01 13.360625 -15.02 12.72125 -14 12.0625 C-10.88835952 10.33756036 -10.88835952 10.33756036 -10.125 7.75 C-10.08375 7.1725 -10.0425 6.595 -10 6 C-9.01 6 -8.02 6 -7 6 C-7 5.34 -7 4.68 -7 4 C-4.69 2.68 -2.38 1.36 0 0 Z " fill="#5685FC" transform="translate(449,579)"/>
<path d="M0 0 C0.66 0 1.32 0 2 0 C2.0292427 4.33331896 2.04688017 8.66661221 2.0625 13 C2.07087891 14.22074219 2.07925781 15.44148438 2.08789062 16.69921875 C2.10464844 22.89960932 1.97272146 28.8726207 1 35 C0.67 35 0.34 35 0 35 C-1.11463007 27.84336723 -1.14893802 20.79577129 -1.125 13.5625 C-1.12886719 12.36689453 -1.13273437 11.17128906 -1.13671875 9.93945312 C-1.13542969 8.80572266 -1.13414062 7.67199219 -1.1328125 6.50390625 C-1.13168457 5.47080322 -1.13055664 4.4377002 -1.12939453 3.37329102 C-1 1 -1 1 0 0 Z " fill="#0C54FC" transform="translate(456,399)"/>
<path d="M0 0 C2.54571668 5.09143335 3.12543386 8.41149338 3.09765625 14.078125 C3.09282227 15.81835938 3.09282227 15.81835938 3.08789062 17.59375 C3.07951172 18.8003125 3.07113281 20.006875 3.0625 21.25 C3.05798828 22.47203125 3.05347656 23.6940625 3.04882812 24.953125 C3.03704815 27.96879946 3.02059853 30.98437498 3 34 C2.34 34 1.68 34 1 34 C1 36.97 1 39.94 1 43 C0.01 43.495 0.01 43.495 -1 44 C-1.65213292 46.02463255 -1.65213292 46.02463255 -2 48 C-2.66 48 -3.32 48 -4 48 C-3.67 44.7 -3.34 41.4 -3 38 C-2.01 38 -1.02 38 0 38 C0.66 28.43 1.32 18.86 2 9 C1.34 9 0.68 9 0 9 C0 6.03 0 3.06 0 0 Z " fill="#81A9FD" transform="translate(614,397)"/>
<path d="M0 0 C0.33 0 0.66 0 1 0 C2.37181515 10.6315674 2.69726508 21.39209327 1 32 C-0.485 32.495 -0.485 32.495 -2 33 C-2 33.66 -2 34.32 -2 35 C-2.66 35 -3.32 35 -4 35 C-4.33 35.99 -4.66 36.98 -5 38 C-7.475 38.495 -7.475 38.495 -10 39 C-9.60167969 38.55269531 -9.20335937 38.10539063 -8.79296875 37.64453125 C1.39117697 26.02320681 0.15447828 14.79558646 0 0 Z " fill="#94B6FD" transform="translate(718,684)"/>
<path d="M0 0 C0.99 0 1.98 0 3 0 C3 1.32 3 2.64 3 4 C3.66 4 4.32 4 5 4 C5 6.64 5 9.28 5 12 C5.66 12 6.32 12 7 12 C7 14.31 7 16.62 7 19 C7.66 19 8.32 19 9 19 C11.16271188 25.27050424 12.39366625 31.12240563 12.7890625 37.75 C12.86634556 40.03417003 12.86634556 40.03417003 14 42 C14.13415472 44.6723621 14.04318541 47.32250488 14 50 C13.67 50 13.34 50 13 50 C11.72495033 45.4948245 10.90053039 41.36479644 10.625 36.6875 C10.24331586 31.50235698 8.76279954 27.26713567 6.85546875 22.4609375 C5.84371916 19.55042497 5.66925144 17.05942419 6 14 C5.34 14 4.68 14 4 14 C3.87882813 13.40832031 3.75765625 12.81664062 3.6328125 12.20703125 C2.73255357 7.96196415 1.79543379 3.97560339 0 0 Z " fill="#87AEFD" transform="translate(704,634)"/>
<path d="M0 0 C1.65 0 3.3 0 5 0 C0.92088862 4.4287495 -2.0058626 6.81216202 -8.11328125 7.1953125 C-9.16902344 7.17210937 -10.22476563 7.14890625 -11.3125 7.125 C-12.38113281 7.10695313 -13.44976563 7.08890625 -14.55078125 7.0703125 C-15.35902344 7.04710937 -16.16726563 7.02390625 -17 7 C-17 6.34 -17 5.68 -17 5 C-11.72 4.34 -6.44 3.68 -1 3 C-0.67 2.01 -0.34 1.02 0 0 Z M-29 7 C-25.04 7 -21.08 7 -17 7 C-17 7.66 -17 8.32 -17 9 C-20.96 9 -24.92 9 -29 9 C-29 8.34 -29 7.68 -29 7 Z " fill="#0853FC" transform="translate(580,473)"/>
<path d="M0 0 C2 3 2 3 1.6875 5.625 C1 8 1 8 0 9 C-0.15858842 11.14386657 -0.25129298 13.29266838 -0.31640625 15.44140625 C-0.35830078 16.74658203 -0.40019531 18.05175781 -0.44335938 19.39648438 C-0.48317608 20.7851533 -0.52288825 22.17382522 -0.5625 23.5625 C-0.60567989 24.95509183 -0.649294 26.34767028 -0.69335938 27.74023438 C-0.79985876 31.16004801 -0.90186923 34.57993763 -1 38 C-1.66 38 -2.32 38 -3 38 C-3 27.77 -3 17.54 -3 7 C-2.34 6.67 -1.68 6.34 -1 6 C-0.34227572 2.97065509 -0.34227572 2.97065509 0 0 Z " fill="#0851FC" transform="translate(494,394)"/>
<path d="M0 0 C5.61 0 11.22 0 17 0 C17 0.66 17 1.32 17 2 C20.3 2.33 23.6 2.66 27 3 C27 3.66 27 4.32 27 5 C25.9941687 4.75552124 25.9941687 4.75552124 24.96801758 4.50610352 C21.43553802 3.90374848 18.09578497 3.8880646 14.51171875 3.90234375 C13.4569207 3.90446617 13.4569207 3.90446617 12.3808136 3.90663147 C10.14966456 3.91219891 7.91861836 3.92474525 5.6875 3.9375 C4.16862125 3.94251921 2.64974091 3.94708138 1.13085938 3.95117188 C-2.57946012 3.96215764 -6.28972001 3.97939966 -10 4 C-10 3.34 -10 2.68 -10 2 C-6.7 2 -3.4 2 0 2 C0 1.34 0 0.68 0 0 Z " fill="#7CA6FD" transform="translate(548,354)"/>
<path d="M0 0 C0.66 0 1.32 0 2 0 C2.02505615 0.88260498 2.0501123 1.76520996 2.07592773 2.67456055 C2.1713353 5.96406615 2.27055193 9.25341182 2.37231445 12.54272461 C2.41549804 13.96357775 2.45718408 15.38447726 2.49731445 16.80541992 C2.55542095 18.8534947 2.61899638 20.90133965 2.68359375 22.94921875 C2.72025146 24.17987061 2.75690918 25.41052246 2.79467773 26.6784668 C2.97269423 29.55826984 3.34609105 32.19587088 4 35 C3.34 35 2.68 35 2 35 C2 34.01 2 33.02 2 32 C1.34 32 0.68 32 0 32 C0 21.44 0 10.88 0 0 Z " fill="#064EFC" transform="translate(394,680)"/>
<path d="M0 0 C0 0.33 0 0.66 0 1 C-6.6 1 -13.2 1 -20 1 C-20 0.34 -20 -0.32 -20 -1 C-21.299375 -0.855625 -22.59875 -0.71125 -23.9375 -0.5625 C-24.66839844 -0.48128906 -25.39929688 -0.40007813 -26.15234375 -0.31640625 C-28.01140229 -0.18113386 -28.01140229 -0.18113386 -29 1 C-30.85287502 1.07226502 -32.70833878 1.0838122 -34.5625 1.0625 C-35.57441406 1.05347656 -36.58632813 1.04445313 -37.62890625 1.03515625 C-38.41136719 1.02355469 -39.19382812 1.01195312 -40 1 C-32.66460715 -6.33539285 -9.28367075 -2.00341257 0 0 Z " fill="#C7DBFE" transform="translate(580,583)"/>
<path d="M0 0 C0 3.74161103 -0.51338171 7.28953557 -1 11 C-1.66 11 -2.32 11 -3 11 C-4.1124534 28.01999538 -4.1124534 28.01999538 -3 45 C-3.33 45 -3.66 45 -4 45 C-4 43.35 -4 41.7 -4 40 C-4.66 40 -5.32 40 -6 40 C-6.05834395 36.12506384 -6.09371201 32.25024164 -6.125 28.375 C-6.14175781 27.28058594 -6.15851563 26.18617188 -6.17578125 25.05859375 C-6.20870943 19.62544448 -6.18608049 15.06951282 -4 10 C-3.73058594 9.16855469 -3.46117187 8.33710938 -3.18359375 7.48046875 C-2.93738281 6.72378906 -2.69117188 5.96710938 -2.4375 5.1875 C-2.06431641 4.03314453 -2.06431641 4.03314453 -1.68359375 2.85546875 C-1 1 -1 1 0 0 Z " fill="#8FB3FD" transform="translate(500,388)"/>
<path d="M0 0 C0.33 0.66 0.66 1.32 1 2 C1.66 2 2.32 2 3 2 C3 5.3 3 8.6 3 12 C3.99 12 4.98 12 6 12 C6.19937616 15.64528348 6.38229958 19.29122228 6.5625 22.9375 C6.61857422 23.95908203 6.67464844 24.98066406 6.73242188 26.03320312 C7.02651964 32.17004306 6.85671026 37.91418417 6 44 C5.67 44 5.34 44 5 44 C4.67 35.42 4.34 26.84 4 18 C3.34 17.67 2.68 17.34 2 17 C1.52381188 14.12817413 1.15832403 11.32879853 0.875 8.4375 C0.78863281 7.63119141 0.70226562 6.82488281 0.61328125 5.99414062 C0.40056372 3.99695936 0.19922145 1.99857263 0 0 Z " fill="#5C90FD" transform="translate(651,381)"/>
<path d="M0 0 C0.45890625 0.40992188 0.9178125 0.81984375 1.390625 1.2421875 C2.00421875 1.78101563 2.6178125 2.31984375 3.25 2.875 C3.85328125 3.40867187 4.4565625 3.94234375 5.078125 4.4921875 C6.97418746 5.9797487 8.81290005 7.00322436 11 8 C11 8.66 11 9.32 11 10 C12.65 10 14.3 10 16 10 C15.01 10.495 15.01 10.495 14 11 C14.99 12.485 14.99 12.485 16 14 C19.56769552 14.73606499 19.56769552 14.73606499 23 15 C22.01 15.495 22.01 15.495 21 16 C23.475 19.465 23.475 19.465 26 23 C22.56546802 21.46203092 19.85610724 19.4264398 16.9375 17.0625 C16.08027344 16.37285156 15.22304688 15.68320312 14.33984375 14.97265625 C12 13 12 13 10.31640625 11.26953125 C9.05546849 9.8207482 9.05546849 9.8207482 7 9.625 C5 9 5 9 3.375 6.6875 C2.23750744 4.46421909 1.11493053 2.23462572 0 0 Z " fill="#5A8AFC" transform="translate(476,481)"/>
<path d="M0 0 C0.66 0.33 1.32 0.66 2 1 C-0.22355226 3.5570851 -1.75018193 4.24170912 -5 5 C-5.33 5.66 -5.66 6.32 -6 7 C-13.36841403 9.60812675 -20.76596221 9.22717733 -28.5 9.125 C-29.799375 9.11597656 -31.09875 9.10695313 -32.4375 9.09765625 C-35.62519299 9.07421733 -38.8124982 9.0414044 -42 9 C-42 8.67 -42 8.34 -42 8 C-40.78098999 7.96241577 -40.78098999 7.96241577 -39.53735352 7.92407227 C-35.87889248 7.80850882 -32.22071472 7.68560416 -28.5625 7.5625 C-27.28310547 7.52318359 -26.00371094 7.48386719 -24.68554688 7.44335938 C-23.47060547 7.40146484 -22.25566406 7.35957031 -21.00390625 7.31640625 C-19.87799072 7.27974854 -18.7520752 7.24309082 -17.59204102 7.20532227 C-15.07146559 7.28781955 -15.07146559 7.28781955 -14 6 C-12.00041636 5.95919217 -9.99954746 5.95745644 -8 6 C-8 5.01 -8 4.02 -8 3 C-6.865625 2.690625 -5.73125 2.38125 -4.5625 2.0625 C-1.21224901 1.37075469 -1.21224901 1.37075469 0 0 Z " fill="#5F91FD" transform="translate(585,469)"/>
<path d="M0 0 C3.3 0 6.6 0 10 0 C8.68 0.33 7.36 0.66 6 1 C6 1.66 6 2.32 6 3 C3.78739818 4.10630091 2.26593534 4.23058377 -0.1875 4.4375 C-4.33712035 4.85380495 -8.03210629 5.73365094 -12 7 C-12 6.01 -12 5.02 -12 4 C-10.35 4 -8.7 4 -7 4 C-7 3.34 -7 2.68 -7 2 C-4.69 2 -2.38 2 0 2 C0 1.34 0 0.68 0 0 Z " fill="#4B85FD" transform="translate(525,317)"/>
<path d="M0 0 C0.66 0 1.32 0 2 0 C4.3030887 6.56654456 5.33693273 12.03672362 5 19 C4.34 19.33 3.68 19.66 3 20 C3 17.69 3 15.38 3 13 C2.34 13 1.68 13 1 13 C-0.10228696 8.59085217 -0.07654536 4.51617599 0 0 Z " fill="#0C55FC" transform="translate(674,661)"/>
<path d="M0 0 C2.64 0 5.28 0 8 0 C8 0.33 8 0.66 8 1 C3.56020917 2.63571241 -0.84066291 3.61454666 -5.47265625 4.4921875 C-7.78297601 4.95639394 -10.03739277 5.51429069 -12.3125 6.125 C-15.40812012 6.85955393 -17.85142195 7.19678613 -21 7 C-21 6.34 -21 5.68 -21 5 C-18.03 5 -15.06 5 -12 5 C-12 4.01 -12 3.02 -12 2 C-8.04 2 -4.08 2 0 2 C0 1.34 0 0.68 0 0 Z " fill="#4C84FC" transform="translate(589,511)"/>
<path d="M0 0 C7.59 0 15.18 0 23 0 C23 0.99 23 1.98 23 3 C11.615 2.505 11.615 2.505 0 2 C0 1.34 0 0.68 0 0 Z " fill="#0952FC" transform="translate(544,351)"/>
<path d="M0 0 C4.29 0.66 8.58 1.32 13 2 C13 2.66 13 3.32 13 4 C14.051875 3.95875 15.10375 3.9175 16.1875 3.875 C19.76596091 3.99232659 21.90310825 4.26938402 25 6 C25.33 6.99 25.66 7.98 26 9 C25.34 9 24.68 9 24 9 C24 8.34 24 7.68 24 7 C22.5459375 7.0309375 22.5459375 7.0309375 21.0625 7.0625 C18 7 18 7 17 6 C14.9412232 5.72046781 12.88271568 5.55265649 10.8125 5.37890625 C9.9153125 5.19134766 9.9153125 5.19134766 9 5 C8.67 4.34 8.34 3.68 8 3 C6.845 2.835 5.69 2.67 4.5 2.5 C3.345 2.335 2.19 2.17 1 2 C0.67 1.34 0.34 0.68 0 0 Z " fill="#B1CAFE" transform="translate(581,584)"/>
<path d="M0 0 C0.33 0.66 0.66 1.32 1 2 C0.34 2 -0.32 2 -1 2 C-1 2.66 -1 3.32 -1 4 C-2.65532623 5.01866229 -4.32260138 6.01810813 -6 7 C-6.33 7.66 -6.66 8.32 -7 9 C-6.34 9.33 -5.68 9.66 -5 10 C-7 12 -7 12 -10.625 12.125 C-11.73875 12.08375 -12.8525 12.0425 -14 12 C-13.34 11.01 -12.68 10.02 -12 9 C-11.34 9 -10.68 9 -10 9 C-10 8.01 -10 7.02 -10 6 C-7.11165997 3.89229241 -5.61537605 3 -2 3 C-2 2.34 -2 1.68 -2 1 C-1.34 0.67 -0.68 0.34 0 0 Z " fill="#447EFC" transform="translate(464,567)"/>
<path d="M0 0 C2.64 0 5.28 0 8 0 C8 0.33 8 0.66 8 1 C6.7934375 1.185625 6.7934375 1.185625 5.5625 1.375 C4.716875 1.58125 3.87125 1.7875 3 2 C2.67 2.66 2.34 3.32 2 4 C0.37322326 4.20334709 -1.25394594 4.40397723 -2.8828125 4.58984375 C-6.81564507 5.35173936 -10.52616575 7.02453632 -14 9 C-14.33 9.66 -14.66 10.32 -15 11 C-16.32 10.67 -17.64 10.34 -19 10 C-7.68315109 2.64264414 -7.68315109 2.64264414 0 3 C0 2.01 0 1.02 0 0 Z " fill="#6898FD" transform="translate(498,548)"/>
<path d="M0 0 C3.3 0 6.6 0 10 0 C9.67 0.66 9.34 1.32 9 2 C6.66752239 2.33926947 4.33414529 2.67240066 2 3 C1.34 3.66 0.68 4.32 0 5 C-2.68839385 5.26991906 -5.29141936 5.08737357 -8 5 C-8.33 4.34 -8.66 3.68 -9 3 C-4.545 2.505 -4.545 2.505 0 2 C0 1.34 0 0.68 0 0 Z " fill="#0852FC" transform="translate(531,318)"/>
<path d="M0 0 C0.66 0.33 1.32 0.66 2 1 C-1.08035356 4.08035356 -4.81125605 5.06916801 -9 6 C-9 6.66 -9 7.32 -9 8 C-10.65 8 -12.3 8 -14 8 C-14 8.66 -14 9.32 -14 10 C-14.99 9.67 -15.98 9.34 -17 9 C-16.67 8.34 -16.34 7.68 -16 7 C-14.68 7 -13.36 7 -12 7 C-11.67 6.01 -11.34 5.02 -11 4 C-8.25 2.9375 -8.25 2.9375 -5 2 C-4.0925 1.608125 -3.185 1.21625 -2.25 0.8125 C-1.5075 0.544375 -0.765 0.27625 0 0 Z " fill="#86ADFD" transform="translate(511,588)"/>
<path d="M0 0 C0 3 0 3 -0.9609375 4.890625 C-2.12763791 7.25911456 -2.39388131 9.13065487 -2.625 11.75 C-2.69976562 12.54921875 -2.77453125 13.3484375 -2.8515625 14.171875 C-2.90054687 14.77515625 -2.94953125 15.3784375 -3 16 C-4.32 16.33 -5.64 16.66 -7 17 C-7 14.69 -7 12.38 -7 10 C-6.01 10 -5.02 10 -4 10 C-3.896875 9.278125 -3.79375 8.55625 -3.6875 7.8125 C-2.94013068 4.75508007 -1.71954811 2.61670365 0 0 Z " fill="#77A1FD" transform="translate(407,634)"/>
<path d="M0 0 C1.32 0 2.64 0 4 0 C4 0.66 4 1.32 4 2 C4.66 2 5.32 2 6 2 C6 2.66 6 3.32 6 4 C7.32 4 8.64 4 10 4 C12.75 6.3125 12.75 6.3125 15 9 C15 9.99 15 10.98 15 12 C14.608125 11.525625 14.21625 11.05125 13.8125 10.5625 C12.09303668 8.79134714 12.09303668 8.79134714 9.625 8.6875 C5.73824796 7.66954113 4.36364199 5.13022858 2 2 C1.34 1.34 0.68 0.68 0 0 Z " fill="#8BB2FD" transform="translate(606,327)"/>
<path d="M0 0 C0.33 0 0.66 0 1 0 C1 4.95 1 9.9 1 15 C1.66 15 2.32 15 3 15 C3.144375 16.11375 3.28875 17.2275 3.4375 18.375 C3.78372035 21.82142047 3.78372035 21.82142047 5 24 C4.01 24 3.02 24 2 24 C2 22.68 2 21.36 2 20 C1.34 20 0.68 20 0 20 C0 13.4 0 6.8 0 0 Z " fill="#BDD4FE" transform="translate(390,691)"/>
<path d="M0 0 C0.66 0 1.32 0 2 0 C1.46048934 6.68993219 0.11293829 12.63460728 -2 19 C-2.33 19 -2.66 19 -3 19 C-3 15.04 -3 11.08 -3 7 C-2.01 7 -1.02 7 0 7 C0 4.69 0 2.38 0 0 Z " fill="#87AEFD" transform="translate(398,652)"/>
<path d="M0 0 C1.37478516 0.01740234 1.37478516 0.01740234 2.77734375 0.03515625 C3.69644531 0.04417969 4.61554687 0.05320312 5.5625 0.0625 C6.27277344 0.07410156 6.98304688 0.08570313 7.71484375 0.09765625 C7.71484375 0.42765625 7.71484375 0.75765625 7.71484375 1.09765625 C6.01328125 1.56171875 6.01328125 1.56171875 4.27734375 2.03515625 C0.92709276 2.72690156 0.92709276 2.72690156 -0.28515625 4.09765625 C-2.30110207 4.33193403 -4.32363025 4.51101749 -6.34765625 4.66015625 C-7.45238281 4.74394531 -8.55710937 4.82773437 -9.6953125 4.9140625 C-10.54996094 4.97464844 -11.40460938 5.03523437 -12.28515625 5.09765625 C-12.28515625 4.43765625 -12.28515625 3.77765625 -12.28515625 3.09765625 C-11.32802734 2.89849609 -11.32802734 2.89849609 -10.3515625 2.6953125 C-9.52527344 2.51871094 -8.69898438 2.34210937 -7.84765625 2.16015625 C-7.02394531 1.98613281 -6.20023438 1.81210937 -5.3515625 1.6328125 C-2.85724112 0.98683513 -2.63711578 0.11269726 0 0 Z " fill="#5E90FD" transform="translate(518.28515625,542.90234375)"/>
<path d="M0 0 C0 3.20395416 -0.74335022 5.09399739 -2 8 C-2.66 8 -3.32 8 -4 8 C-4 8.66 -4 9.32 -4 10 C-4.66 10 -5.32 10 -6 10 C-6.33 10.99 -6.66 11.98 -7 13 C-7.66 13 -8.32 13 -9 13 C-9.33 14.32 -9.66 15.64 -10 17 C-10.33 16.34 -10.66 15.68 -11 15 C-10.67 14.01 -10.34 13.02 -10 12 C-9.34 11.67 -8.68 11.34 -8 11 C-7.67 10.01 -7.34 9.02 -7 8 C-6.34 8 -5.68 8 -5 8 C-4.731875 7.236875 -4.46375 6.47375 -4.1875 5.6875 C-3.05575888 3.12619116 -2.08776599 1.80307062 0 0 Z " fill="#87AFFD" transform="translate(464,620)"/>
<path d="M0 0 C1.2065625 0.0309375 1.2065625 0.0309375 2.4375 0.0625 C1.1175 0.3925 -0.2025 0.7225 -1.5625 1.0625 C-1.5625 1.7225 -1.5625 2.3825 -1.5625 3.0625 C-4.63867188 3.35546875 -4.63867188 3.35546875 -7.71484375 3.6484375 C-8.32457031 3.78507813 -8.93429687 3.92171875 -9.5625 4.0625 C-9.8925 4.7225 -10.2225 5.3825 -10.5625 6.0625 C-13.5325 6.0625 -16.5025 6.0625 -19.5625 6.0625 C-14.49618572 2.68495715 -9.52251606 1.88054142 -3.5625 1.0625 C-2.5625 0.0625 -2.5625 0.0625 0 0 Z " fill="#BFD6FE" transform="translate(594.5625,511.9375)"/>
<path d="M0 0 C2.64 0 5.28 0 8 0 C8 0.66 8 1.32 8 2 C11.96 2 15.92 2 20 2 C20.33 2.66 20.66 3.32 21 4 C18.43663746 3.88553728 15.87486555 3.75880499 13.3125 3.625 C12.59126953 3.5940625 11.87003906 3.563125 11.12695312 3.53125 C7.02789606 3.30664413 3.75631541 2.82259091 0 1 C0 0.67 0 0.34 0 0 Z " fill="#5D90FC" transform="translate(525,514)"/>
<path d="M0 0 C2.31 0 4.62 0 7 0 C7 0.66 7 1.32 7 2 C7.886875 2.12375 8.77375 2.2475 9.6875 2.375 C12.70387502 2.94412736 15.20326054 3.76614436 18 5 C17.67 5.66 17.34 6.32 17 7 C14.36 6.67 11.72 6.34 9 6 C9 5.01 9 4.02 9 3 C4.545 2.01 4.545 2.01 0 1 C0 0.67 0 0.34 0 0 Z " fill="#7FA8FD" transform="translate(581,317)"/>
<path d="M0 0 C0.33 0.66 0.66 1.32 1 2 C1.66 2 2.32 2 3 2 C3.06058594 2.71027344 3.12117187 3.42054688 3.18359375 4.15234375 C3.26738281 5.07144531 3.35117187 5.99054688 3.4375 6.9375 C3.51871094 7.85402344 3.59992187 8.77054687 3.68359375 9.71484375 C3.76044976 11.96159732 3.76044976 11.96159732 5 13 C5.04063832 14.66617115 5.042721 16.33388095 5 18 C4.01 17.67 3.02 17.34 2 17 C1.34 11.39 0.68 5.78 0 0 Z " fill="#4683FD" transform="translate(651,381)"/>
<path d="M0 0 C1.32 0.66 2.64 1.32 4 2 C0.375 6.875 0.375 6.875 -3 8 C-4.20882096 10.00016466 -4.20882096 10.00016466 -5 12 C-5.66 11.67 -6.32 11.34 -7 11 C-6.67 9.35 -6.34 7.7 -6 6 C-5.01 6 -4.02 6 -3 6 C-3 5.34 -3 4.68 -3 4 C-2.01 4 -1.02 4 0 4 C-0.33 3.01 -0.66 2.02 -1 1 C-0.67 0.67 -0.34 0.34 0 0 Z " fill="#2E75FC" transform="translate(472,608)"/>
<path d="M0 0 C1.98 0 3.96 0 6 0 C6 0.66 6 1.32 6 2 C9.96 2 13.92 2 18 2 C18 2.99 18 3.98 18 5 C16.33388095 5.042721 14.66617115 5.04063832 13 5 C12.67 4.67 12.34 4.34 12 4 C9.67182036 3.63239269 7.3381615 3.29758419 5 3 C5 2.34 5 1.68 5 1 C3.35 1 1.7 1 0 1 C0 0.67 0 0.34 0 0 Z " fill="#96B9FD" transform="translate(582,541)"/>
<path d="M0 0 C0.99 0.33 1.98 0.66 3 1 C2.34 1 1.68 1 1 1 C1 1.66 1 2.32 1 3 C0.34 3 -0.32 3 -1 3 C-1.2165625 3.928125 -1.2165625 3.928125 -1.4375 4.875 C-2 7 -2 7 -3 9 C-3.99 9 -4.98 9 -6 9 C-6.33 10.32 -6.66 11.64 -7 13 C-7.33 12.34 -7.66 11.68 -8 11 C-7.67 10.01 -7.34 9.02 -7 8 C-6.34 8 -5.68 8 -5 8 C-4.67 6.35 -4.34 4.7 -4 3 C-2.68 2.67 -1.36 2.34 0 2 C0 1.34 0 0.68 0 0 Z " fill="#9DBEFD" transform="translate(483,341)"/>
<path d="M0 0 C0 0.99 0 1.98 0 3 C-0.66 3.66 -1.32 4.32 -2 5 C-2.103125 5.598125 -2.20625 6.19625 -2.3125 6.8125 C-3.32990617 10.04970144 -5.55005177 11.73850933 -8 14 C-8.66 13.67 -9.32 13.34 -10 13 C-8.7260411 10.96166576 -7.38938077 8.96147874 -6 7 C-5.34 7 -4.68 7 -4 7 C-4 5.35 -4 3.7 -4 2 C-2.68 1.34 -1.36 0.68 0 0 Z " fill="#769EFD" transform="translate(431,596)"/>
<path d="M0 0 C0.66 0 1.32 0 2 0 C2 0.99 2 1.98 2 3 C2.66 3 3.32 3 4 3 C4.33 2.34 4.66 1.68 5 1 C6.09658936 4.28976808 5.79953138 5.71303767 5 9 C5.66 9 6.32 9 7 9 C6.67 10.32 6.34 11.64 6 13 C4.99759911 11.02204824 3.99813957 9.04260558 3 7.0625 C2.1646875 5.40927734 2.1646875 5.40927734 1.3125 3.72265625 C0 1 0 1 0 0 Z " fill="#3674FC" transform="translate(463,459)"/>
<path d="M0 0 C1.65 0 3.3 0 5 0 C6.28446919 2.56893838 6.32977144 4.76576337 6.5625 7.625 C6.64628906 8.62789063 6.73007812 9.63078125 6.81640625 10.6640625 C6.87699219 11.43492187 6.93757812 12.20578125 7 13 C6.67 13 6.34 13 6 13 C5.87625 12.195625 5.7525 11.39125 5.625 10.5625 C5.41875 9.716875 5.2125 8.87125 5 8 C4.34 7.67 3.68 7.34 3 7 C0 2.5 0 2.5 0 0 Z " fill="#4C80FC" transform="translate(606,382)"/>
<path d="M0 0 C0.66 0 1.32 0 2 0 C2.33 0.99 2.66 1.98 3 3 C1.85546875 5.04296875 1.85546875 5.04296875 0.1875 7.1875 C-0.62654297 8.26064453 -0.62654297 8.26064453 -1.45703125 9.35546875 C-1.96621094 9.89816406 -2.47539062 10.44085938 -3 11 C-3.66 11 -4.32 11 -5 11 C-4.6875 8.625 -4.6875 8.625 -4 6 C-3.01 5.34 -2.02 4.68 -1 4 C-0.27617533 1.94074861 -0.27617533 1.94074861 0 0 Z " fill="#0D52FC" transform="translate(478,350)"/>
<path d="M0 0 C0.66 0.33 1.32 0.66 2 1 C1.67 2.98 1.34 4.96 1 7 C0.34 7 -0.32 7 -1 7 C-1.33 8.65 -1.66 10.3 -2 12 C-2.66 12 -3.32 12 -4 12 C-4.33 12.66 -4.66 13.32 -5 14 C-4.42923685 10.00465792 -3.09958585 7.411827 -1 4 C-0.30420546 1.80869466 -0.30420546 1.80869466 0 0 Z " fill="#5E8FFD" transform="translate(415,616)"/>
<path d="M0 0 C1.32 0 2.64 0 4 0 C3.7834375 1.0209375 3.7834375 1.0209375 3.5625 2.0625 C2.93054091 5.36273082 2.45686059 8.67144426 2 12 C1.34 12 0.68 12 0 12 C0 8.04 0 4.08 0 0 Z " fill="#2D70FC" transform="translate(649,445)"/>
<path d="M0 0 C0.99 0 1.98 0 3 0 C2.67 0.99 2.34 1.98 2 3 C1.34 3 0.68 3 0 3 C-0.12375 3.7425 -0.2475 4.485 -0.375 5.25 C-0.95486701 7.80141485 -1.73708739 9.7267573 -3 12 C-4.41116678 8.79280276 -3.89413879 7.71609948 -2.625 4.3125 C-1 1 -1 1 0 0 Z " fill="#0E52FC" transform="translate(470,362)"/>
<path d="M0 0 C2 2 2 2 2.1953125 4.1640625 C2.16050781 5.38222656 2.16050781 5.38222656 2.125 6.625 C2.10695313 7.44226563 2.08890625 8.25953125 2.0703125 9.1015625 C2.04710937 9.72804688 2.02390625 10.35453125 2 11 C1.01 11 0.02 11 -1 11 C-0.67 7.37 -0.34 3.74 0 0 Z " fill="#0B54FC" transform="translate(397,667)"/>
<path d="M0 0 C0.33 0 0.66 0 1 0 C1 3.63 1 7.26 1 11 C0.01 11.33 -0.98 11.66 -2 12 C-2.28571429 3.42857143 -2.28571429 3.42857143 0 0 Z " fill="#4A84FC" transform="translate(457,388)"/>
<path d="M0 0 C2.475 0.99 2.475 0.99 5 2 C2.31158141 4.25245881 0.35358125 5.88213958 -3 7 C-3.33 6.01 -3.66 5.02 -4 4 C-2.68 2.68 -1.36 1.36 0 0 Z " fill="#2565FC" transform="translate(607,499)"/>
<path d="M0 0 C1.32 0.33 2.64 0.66 4 1 C4 1.66 4 2.32 4 3 C4.66 3 5.32 3 6 3 C6 3.66 6 4.32 6 5 C7.32 5 8.64 5 10 5 C10.33 5.99 10.66 6.98 11 8 C7.5625 7.1875 7.5625 7.1875 4 6 C3.67 5.01 3.34 4.02 3 3 C2.34 3 1.68 3 1 3 C0.67 2.01 0.34 1.02 0 0 Z " fill="#7199FD" transform="translate(650,570)"/>
<path d="M0 0 C2.31 0 4.62 0 7 0 C6.38125 0.28875 5.7625 0.5775 5.125 0.875 C2.86674235 1.93720042 2.86674235 1.93720042 1 4 C-0.98821313 4.39764263 -2.98944339 4.73775349 -5 5 C-5 4.01 -5 3.02 -5 2 C-3.35 2 -1.7 2 0 2 C0 1.34 0 0.68 0 0 Z " fill="#8AB1FD" transform="translate(518,319)"/>
<path d="M0 0 C1.98 0 3.96 0 6 0 C5.01 0.495 5.01 0.495 4 1 C6.475 4.465 6.475 4.465 9 8 C5.56247993 6.4722133 2.81046312 4.49818944 0 2 C0 1.34 0 0.68 0 0 Z " fill="#437CFC" transform="translate(493,496)"/>
<path d="M0 0 C1.32 0 2.64 0 4 0 C4 0.66 4 1.32 4 2 C3.34 2 2.68 2 2 2 C1.773125 2.639375 1.54625 3.27875 1.3125 3.9375 C0 6 0 6 -2.625 6.75 C-3.800625 6.87375 -3.800625 6.87375 -5 7 C-5 6.34 -5 5.68 -5 5 C-3.68 4.67 -2.36 4.34 -1 4 C-0.67 2.68 -0.34 1.36 0 0 Z " fill="#0951FB" transform="translate(490,338)"/>
<path d="M0 0 C0 0.99 0 1.98 0 3 C-6.625 4 -6.625 4 -10 4 C-8 1 -8 1 -5 0.3125 C-2 0 -2 0 0 0 Z " fill="#ABC9FE" transform="translate(521,586)"/>
<path d="M0 0 C0.33 1.32 0.66 2.64 1 4 C0.34 4 -0.32 4 -1 4 C-1.28875 4.5775 -1.5775 5.155 -1.875 5.75 C-2.91666667 7.83333333 -3.95833333 9.91666667 -5 12 C-6.33332095 9.3333581 -5.67102033 7.83319697 -5 5 C-4.01 5 -3.02 5 -2 5 C-1.34 3.35 -0.68 1.7 0 0 Z " fill="#759FFD" transform="translate(641,470)"/>
<path d="M0 0 C0 3.58912412 -0.66436554 4.10857029 -3 6.6875 C-3.556875 7.31011719 -4.11375 7.93273437 -4.6875 8.57421875 C-5.120625 9.04472656 -5.55375 9.51523437 -6 10 C-6 6.70776216 -5.49481868 4.91489643 -4 2 C-1.875 0.6875 -1.875 0.6875 0 0 Z " fill="#95B9FD" transform="translate(606,450)"/>
<path d="M0 0 C2.31 0.66 4.62 1.32 7 2 C7.33 4.31 7.66 6.62 8 9 C5.06799526 6.14723863 2.35684596 3.34920216 0 0 Z " fill="#487AFC" transform="translate(595,369)"/>
<path d="M0 0 C3.3 0 6.6 0 10 0 C10 0.33 10 0.66 10 1 C8.453125 1.433125 8.453125 1.433125 6.875 1.875 C3.54992003 2.82308798 0.27248547 3.88256594 -3 5 C-3 4.34 -3 3.68 -3 3 C-2.01 3 -1.02 3 0 3 C0 2.01 0 1.02 0 0 Z " fill="#3B79FC" transform="translate(528,358)"/>
<path d="M0 0 C0.66 0 1.32 0 2 0 C1.44271087 3.34373475 0.64826111 6.03312999 -1 9 C-1.66 9 -2.32 9 -3 9 C-3 7.68 -3 6.36 -3 5 C-2.34 4.67 -1.68 4.34 -1 4 C-0.34786708 1.97536745 -0.34786708 1.97536745 0 0 Z " fill="#0B52FC" transform="translate(409,633)"/>
<path d="M0 0 C3.63 1.32 7.26 2.64 11 4 C11 4.33 11 4.66 11 5 C8.69 5 6.38 5 4 5 C4 4.34 4 3.68 4 3 C2.68 3 1.36 3 0 3 C0 2.01 0 1.02 0 0 Z " fill="#B4CDFD" transform="translate(514,510)"/>
<path d="M0 0 C0.33 0 0.66 0 1 0 C1.23509196 4.81938524 0.45184478 8.46298506 -1 13 C-1.33 13 -1.66 13 -2 13 C-2.16682272 8.07872966 -2.24828052 4.49656104 0 0 Z " fill="#6093FD" transform="translate(395,671)"/>
<path d="M0 0 C3.46941546 0.45822468 6.67395049 0.89131683 10 2 C10.33 2.99 10.66 3.98 11 5 C10.34 5 9.68 5 9 5 C9 4.34 9 3.68 9 3 C8.071875 3.061875 7.14375 3.12375 6.1875 3.1875 C3 3 3 3 1.125 1.5 C0.75375 1.005 0.3825 0.51 0 0 Z " fill="#8FB2FD" transform="translate(596,588)"/>
<path d="M0 0 C0 0.66 0 1.32 0 2 C-3.08809695 3.76462683 -4.23312136 4 -8 4 C-8 3.34 -8 2.68 -8 2 C-3.61016949 -1.20338983 -3.61016949 -1.20338983 0 0 Z " fill="#0A51FC" transform="translate(493,555)"/>
<path d="M0 0 C2.96404505 2.80804268 5.44499019 5.18315774 7 9 C5.35 8.67 3.7 8.34 2 8 C1.34 5.36 0.68 2.72 0 0 Z " fill="#A8C4FD" transform="translate(469,472)"/>
<path d="M0 0 C0.99 0.33 1.98 0.66 3 1 C3.144375 2.2375 3.28875 3.475 3.4375 4.75 C3.78688502 7.56504499 4.20379366 10.2701497 5 13 C2.03472242 10.5546615 1.44417786 8.55397653 0.8125 4.8125 C0.65394531 3.91144531 0.49539063 3.01039063 0.33203125 2.08203125 C0.22246094 1.39496094 0.11289062 0.70789063 0 0 Z " fill="#AAC8FE" transform="translate(647,368)"/>
<path d="M0 0 C0.33 1.32 0.66 2.64 1 4 C-0.65 4.33 -2.3 4.66 -4 5 C-4 5.66 -4 6.32 -4 7 C-4.99 6.67 -5.98 6.34 -7 6 C-6.34 6 -5.68 6 -5 6 C-5 5.34 -5 4.68 -5 4 C-3.37373596 2.61767557 -1.7074998 1.28062485 0 0 Z " fill="#3876FC" transform="translate(489,338)"/>
<path d="M0 0 C2.50298434 2.93828597 3.46930939 5.17902761 4 9 C3.34 9 2.68 9 2 9 C-0.29013653 5.5647952 -0.17842973 4.014669 0 0 Z " fill="#0A53FC" transform="translate(670,652)"/>
<path d="M0 0 C2.66735273 2.48952921 4.55746343 4.63408134 6 8 C4.35 7.67 2.7 7.34 1 7 C0.67 4.69 0.34 2.38 0 0 Z " fill="#AAC5FE" transform="translate(652,628)"/>
<path d="M0 0 C1.32 0.33 2.64 0.66 4 1 C3.34 1 2.68 1 2 1 C2 1.66 2 2.32 2 3 C2.66 3.33 3.32 3.66 4 4 C1.3333581 5.33332095 -0.16680303 4.67102033 -3 4 C-2.67 3.34 -2.34 2.68 -2 2 C-1.34 2 -0.68 2 0 2 C0 1.34 0 0.68 0 0 Z " fill="#4A81FC" transform="translate(468,563)"/>
<path d="M0 0 C2.31 0.66 4.62 1.32 7 2 C7 2.66 7 3.32 7 4 C7.99 4.33 8.98 4.66 10 5 C6.44219804 4.39009109 3.3171411 3.4216319 0 2 C0 1.34 0 0.68 0 0 Z " fill="#B9D0FE" transform="translate(628,556)"/>
<path d="M0 0 C0.99 0.33 1.98 0.66 3 1 C3 2.65 3 4.3 3 6 C2.01 6 1.02 6 0 6 C0 4.02 0 2.04 0 0 Z " fill="#0C52FC" transform="translate(460,446)"/>
<path d="M0 0 C0.99 0.33 1.98 0.66 3 1 C4.1875 3.5625 4.1875 3.5625 5 6 C4.01 6 3.02 6 2 6 C2 5.34 2 4.68 2 4 C1.34 4 0.68 4 0 4 C0 2.68 0 1.36 0 0 Z " fill="#0B55FC" transform="translate(603,374)"/>
<path d="M0 0 C1.65 0 3.3 0 5 0 C5 0.66 5 1.32 5 2 C4.01 2 3.02 2 2 2 C2 2.66 2 3.32 2 4 C0.68 4 -0.64 4 -2 4 C-2 3.34 -2 2.68 -2 2 C-1.34 2 -0.68 2 0 2 C0 1.34 0 0.68 0 0 Z " fill="#0B53FC" transform="translate(523,359)"/>
<path d="M0 0 C0.99 0 1.98 0 3 0 C3 0.66 3 1.32 3 2 C4.32 2 5.64 2 7 2 C7 2.66 7 3.32 7 4 C5.35 4 3.7 4 2 4 C1.34 2.68 0.68 1.36 0 0 Z " fill="#1051FC" transform="translate(632,605)"/>
<path d="M0 0 C2.4375 0.6875 2.4375 0.6875 5 2 C5.8125 4.625 5.8125 4.625 6 7 C1.125 2.25 1.125 2.25 0 0 Z " fill="#AFC8FE" transform="translate(676,592)"/>
</svg>
